<?xml version="1.0" encoding="utf-8"?>
<!-- Generator: Adobe Illustrator 16.0.0, SVG Export Plug-In . SVG Version: 6.00 Build 0)  -->
<!DOCTYPE svg PUBLIC "-//W3C//DTD SVG 1.1//EN" "http://www.w3.org/Graphics/SVG/1.1/DTD/svg11.dtd">
<svg version="1.1" xmlns="http://www.w3.org/2000/svg" xmlns:xlink="http://www.w3.org/1999/xlink" x="0px" y="0px"
	 width="232.488px" height="234.127px" viewBox="0 0 232.488 234.127" enable-background="new 0 0 232.488 234.127"
	 xml:space="preserve">
<g id="Layer_1">
	<g>
		<path fill="#E82325" stroke="#E82325" stroke-width="0.8" stroke-miterlimit="10" d="M107.923,105.129
			c1.067,0,2.061,0.373,2.815,0.956c0.075,0.062,0.101,0.163,0.051,0.224c-0.073,0.074-0.175,0.088-0.235,0.023
			c-0.72-0.557-1.626-0.878-2.631-0.878c-2.295,0-4.184,1.823-4.184,4.067c0,2.273,1.889,4.096,4.184,4.096
			c0.994,0,1.896-0.322,2.618-0.879c0.073-0.051,0.175-0.051,0.237,0.023c0.061,0.061,0.035,0.161-0.04,0.223
			c-0.781,0.584-1.748,0.956-2.815,0.956c-2.482-0.011-4.503-1.985-4.503-4.419C103.42,107.116,105.44,105.129,107.923,105.129z"/>
		<path fill="#E82325" stroke="#E82325" stroke-width="0.8" stroke-miterlimit="10" d="M118.065,111.581h-4.345l-0.832,2.225
			c-0.011,0.06-0.071,0.113-0.134,0.113c-0.013,0-0.037-0.018-0.063-0.018c-0.074-0.035-0.11-0.12-0.074-0.209l3.129-8.339
			c0.024-0.074,0.086-0.111,0.159-0.099c0.062,0,0.125,0.037,0.162,0.099l3.126,8.339c0.038,0.089-0.012,0.174-0.089,0.209
			c-0.021,0-0.036,0.018-0.047,0.018c-0.062,0-0.123-0.053-0.16-0.113L118.065,111.581z M113.846,111.262h4.095l-2.047-5.438
			L113.846,111.262z"/>
		<path fill="#E82325" stroke="#E82325" stroke-width="0.8" stroke-miterlimit="10" d="M120.525,112.75
			c-0.062-0.063-0.075-0.161-0.012-0.225c0.061-0.06,0.162-0.071,0.225-0.011c0.012,0.011,1.315,1.177,3.013,1.177
			c1.677,0,2.979-0.941,2.979-2.145c0-1.379-1.327-1.689-2.729-2.013c-1.44-0.334-2.928-0.681-2.928-2.271
			c0-1.126,1.201-2.056,2.689-2.056c1.715,0,2.607,1.002,2.644,1.053c0.064,0.061,0.052,0.161-0.011,0.221
			c-0.076,0.052-0.176,0.052-0.224-0.011c-0.013-0.013-0.845-0.944-2.409-0.944c-1.3,0-2.368,0.783-2.368,1.737
			c0,1.329,1.304,1.641,2.681,1.963c1.465,0.336,2.965,0.679,2.965,2.321c0,1.375-1.439,2.455-3.29,2.455
			C121.93,114,120.574,112.799,120.525,112.75z"/>
		<path fill="#E82325" stroke="#E82325" stroke-width="0.8" stroke-miterlimit="10" d="M133.969,111.581h-4.343l-0.831,2.225
			c-0.013,0.06-0.075,0.113-0.135,0.113c-0.014,0-0.04-0.018-0.064-0.018c-0.073-0.035-0.111-0.12-0.073-0.209l3.127-8.339
			c0.027-0.074,0.085-0.111,0.162-0.099c0.061,0,0.122,0.037,0.158,0.099l3.127,8.339c0.04,0.089-0.011,0.174-0.085,0.209
			c-0.025,0-0.037,0.018-0.049,0.018c-0.064,0-0.127-0.053-0.162-0.113L133.969,111.581z M129.75,111.262h4.096l-2.049-5.438
			L129.75,111.262z"/>
		<path fill="#E82325" stroke="#E82325" stroke-width="0.8" stroke-miterlimit="10" d="M136.43,112.75
			c-0.063-0.063-0.075-0.161-0.011-0.225c0.061-0.06,0.159-0.071,0.224-0.011c0.012,0.011,1.312,1.177,3.014,1.177
			c1.674,0,2.978-0.941,2.978-2.145c0-1.379-1.326-1.689-2.727-2.013c-1.443-0.334-2.932-0.681-2.932-2.271
			c0-1.126,1.205-2.056,2.693-2.056c1.712,0,2.604,1.002,2.642,1.053c0.064,0.061,0.051,0.161-0.01,0.221
			c-0.075,0.052-0.175,0.052-0.225-0.011c-0.013-0.013-0.844-0.944-2.407-0.944c-1.301,0-2.369,0.783-2.369,1.737
			c0,1.329,1.301,1.641,2.68,1.963c1.461,0.336,2.966,0.679,2.966,2.321c0,1.375-1.441,2.455-3.289,2.455
			C137.833,114,136.479,112.799,136.43,112.75z"/>
		<path fill="#E82325" stroke="#E82325" stroke-width="0.8" stroke-miterlimit="10" d="M107.923,120.029
			c1.067,0,2.061,0.374,2.815,0.956c0.075,0.061,0.101,0.161,0.051,0.223c-0.073,0.073-0.175,0.087-0.235,0.026
			c-0.72-0.559-1.626-0.884-2.631-0.884c-2.295,0-4.184,1.825-4.184,4.072c0,2.269,1.889,4.093,4.184,4.093
			c0.994,0,1.896-0.324,2.618-0.88c0.073-0.049,0.175-0.049,0.237,0.022c0.061,0.065,0.035,0.164-0.04,0.224
			c-0.781,0.582-1.748,0.955-2.815,0.955c-2.482-0.011-4.503-1.986-4.503-4.415C103.42,122.015,105.44,120.029,107.923,120.029z"/>
		<path fill="#E82325" stroke="#E82325" stroke-width="0.8" stroke-miterlimit="10" d="M116.974,120.029
			c2.344,0,4.219,1.999,4.243,4.479c-0.024,2.493-1.899,4.491-4.243,4.491c-2.345,0-4.219-1.998-4.231-4.491
			C112.755,122.027,114.629,120.029,116.974,120.029z M116.974,128.664c2.12-0.022,3.883-1.859,3.894-4.156
			c-0.011-2.308-1.773-4.158-3.894-4.158c-2.134,0-3.897,1.85-3.897,4.158C113.076,126.805,114.84,128.642,116.974,128.664z"/>
		<path fill="#E82325" stroke="#E82325" stroke-width="0.8" stroke-miterlimit="10" d="M123.146,120.315
			c0-0.1,0.063-0.16,0.161-0.16c0.075,0,0.148,0.06,0.148,0.16v8.36c0,0.102-0.073,0.161-0.148,0.161
			c-0.098,0-0.161-0.06-0.161-0.161V120.315z"/>
		<path fill="#E82325" stroke="#E82325" stroke-width="0.8" stroke-miterlimit="10" d="M133.797,120.784l-3.166,4.408
			c-0.037,0.035-0.086,0.061-0.137,0.061h-0.023c-0.062,0-0.113-0.025-0.138-0.061l-3.177-4.419v7.903
			c0,0.09-0.062,0.161-0.147,0.161c-0.088,0-0.164-0.071-0.164-0.161v-8.349c0-0.076,0.076-0.161,0.164-0.161
			c0.011,0,0.023,0,0.037,0.012c0.038,0,0.076,0.024,0.11,0.048l3.325,4.617l3.328-4.617c0.021-0.024,0.062-0.048,0.096-0.048
			c0.014-0.012,0.027-0.012,0.038-0.012c0.1,0,0.161,0.085,0.161,0.161v8.349c0,0.09-0.062,0.161-0.161,0.161
			c-0.072,0-0.146-0.071-0.146-0.161V120.784z"/>
		<path fill="#E82325" stroke="#E82325" stroke-width="0.8" stroke-miterlimit="10" d="M137.324,120.315
			c0-0.089,0.062-0.16,0.162-0.16h0.022h1.965c1.151,0,2.094,0.941,2.094,2.082c0,0.794-0.434,1.464-1.078,1.825
			c1.115,0.212,1.959,1.191,1.959,2.357c0,1.339-1.067,2.418-2.405,2.418h-2.534h-0.022c-0.101,0-0.162-0.071-0.162-0.161V120.315z
			 M139.474,124c0.977,0,1.763-0.783,1.773-1.764c-0.011-0.968-0.797-1.749-1.773-1.774h-1.839V124H139.474z M140.043,128.527
			c1.166,0,2.085-0.941,2.085-2.109c0-1.144-0.919-2.085-2.085-2.085h-2.408v4.194H140.043z"/>
		<path fill="#E82325" stroke="#E82325" stroke-width="0.8" stroke-miterlimit="10" d="M149.18,126.963
			c0-0.604-0.275-1.029-0.62-1.337c-0.336-0.298-0.833-0.646-2.197-0.646h-1.526v3.696c0,0.09-0.06,0.161-0.148,0.161
			c-0.088,0-0.16-0.071-0.16-0.161v-8.36c0-0.089,0.072-0.16,0.16-0.16h0.011h0.013h2.521c1.328,0,2.418,1.079,2.418,2.416
			c0,1.106-0.73,2.025-1.736,2.31c0.149,0.063,0.301,0.135,0.449,0.223c0.542,0.311,1.125,0.906,1.125,1.86
			c0,0.707,0.098,1.094,0.187,1.269c0.089,0.161,0.162,0.148,0.199,0.148c0.102-0.011,0.187,0.048,0.198,0.124
			c0.025,0.16-0.113,0.198-0.211,0.198c-0.123,0-0.319-0.087-0.446-0.333C149.27,128.119,149.18,127.709,149.18,126.963z
			 M147.231,124.659h0.023c1.141-0.012,2.072-0.918,2.072-2.088c0-1.164-0.943-2.108-2.096-2.108h-2.396v4.196H147.231z"/>
		<path fill="#E82325" stroke="#E82325" stroke-width="0.8" stroke-miterlimit="10" d="M157.333,126.479h-4.341l-0.831,2.224
			c-0.015,0.063-0.072,0.111-0.136,0.111c-0.011,0-0.038-0.013-0.064-0.013c-0.073-0.035-0.112-0.125-0.073-0.213l3.128-8.336
			c0.026-0.073,0.086-0.11,0.162-0.096c0.059,0,0.122,0.035,0.159,0.096l3.127,8.336c0.039,0.088-0.014,0.178-0.086,0.213
			c-0.025,0-0.039,0.013-0.049,0.013c-0.064,0-0.123-0.048-0.164-0.111L157.333,126.479z M153.115,126.16h4.097l-2.05-5.436
			L153.115,126.16z"/>
		<path fill="#E82325" d="M140.888,96.948v-6.671v-5.699c0,0-10.55-6.217-26.846-6.141c-7.877,0.038-14.302,2.029-18.902,4.105
			c-2.313,0.911-4.554,2.172-6.819,3.856c-0.729,0.525-1.119,0.851-1.119,0.851s0.007-0.003,0.01-0.003
			c-1.001,0.805-2.014,1.693-3.041,2.684c-6.965,6.647-10.159,15.827-10.159,26.82c0,9.804,2.617,17.96,7.655,24.519l-0.046-0.026
			c0,0,0.491,0.667,1.407,1.679c0.174,0.204,0.329,0.42,0.508,0.619c1.679,1.839,3.523,3.415,5.508,4.762
			c5.034,3.666,12.552,7.389,22.378,7.389c19.364,0,28.927-10.439,28.927-10.439s-0.029,0.01-0.037,0.013
			c0.777-0.735,1.532-1.502,2.245-2.329l-4.375-5.7c-0.401-0.431-1.008-0.631-1.61-0.631c-0.634,0-1.037,0.317-1.641,0.834
			c-0.834,0.777-1.725,1.438-2.647,2.073l2.619,3.424c-4.634,5.406-10.646,8.781-17.953,10.194c-1.435,0.223-2.912,0.339-4.347,0.31
			c-2.177-0.047-6.066-0.707-9.248-1.693c-4.674-1.714-8.759-4.446-12.163-8.208c-6.303-6.907-9.555-15.828-9.555-26.791
			c0-10.993,3.223-20.172,10.159-26.82c1.432-1.379,2.932-2.522,4.465-3.544c13.583-7.268,27.094-4.31,27.054-1.682
			c-0.036,2.459-0.014,3.458-0.014,3.458s0.04-0.003,0.046-0.003c0.224,0.06,3.598,0.984,4.822,1.485
			c0.345,0.144,3.817,1.398,5.402,2.233C135.699,92.993,140.888,96.948,140.888,96.948z"/>
		<path fill="#96CDCD" d="M128.916,136.604c-0.604,0-1.009,0.317-1.612,0.834c-2.647,2.417-5.696,4.06-8.947,5.266
			c-1.007,0.344-2.188,0.634-3.599,0.835c-5.322-0.807-9.812-3.138-13.495-7.138c-4.864-5.265-6.792-10.934-6.792-19.652
			c0-8.748,2.533-15.769,7.396-21.035c4.058-4.289,9.121-6.762,15.192-7.481c-9.609-0.979-17.178,1.524-22.817,7.481
			c-4.863,5.266-7.424,12.287-7.424,21.035c0,8.718,1.956,14.387,6.819,19.652c4.661,5.097,10.647,7.542,17.957,7.542
			c1.035,0,1.983-0.028,2.877-0.087c0.604,0.059,1.266,0.087,1.899,0.087c4.259,0,7.394-0.432,9.638-1.238
			c2.218-0.834,4.317-1.841,6.274-3.193l-1.726-2.275C130.153,136.805,129.55,136.604,128.916,136.604z"/>
	</g>
</g>
<g id="Layer_2">
</g>
</svg>
