<?xml version="1.0" encoding="utf-8"?>
<!-- Generator: Adobe Illustrator 16.0.0, SVG Export Plug-In . SVG Version: 6.00 Build 0)  -->
<!DOCTYPE svg PUBLIC "-//W3C//DTD SVG 1.1//EN" "http://www.w3.org/Graphics/SVG/1.1/DTD/svg11.dtd">
<svg version="1.1" id="Layer_1" xmlns="http://www.w3.org/2000/svg" xmlns:xlink="http://www.w3.org/1999/xlink" x="0px" y="0px"
	 width="126.894px" height="142.833px" viewBox="4.296 5.167 126.894 142.833" enable-background="new 4.296 5.167 126.894 142.833"
	 xml:space="preserve">
<g id="Layer_1_1_">
</g>
<g id="Layer_2">
	<g>
		<g>
			<path fill="#E82325" stroke="#E82325" stroke-width="0.8" stroke-miterlimit="10" d="M152.996,96.758
				c0.062,0.141-0.021,0.283-0.138,0.338c-0.039,0-0.062,0.021-0.078,0.021c-0.102,0-0.196-0.076-0.258-0.178"/>
			<g>
				<g>
					<g>
						<path fill="#129DCB" d="M88.271,8.619c0.07,0,0.146,0.004,0.219,0.004c0.068,0,0.135-0.004,0.203-0.004H88.271z"/>
						<path fill="#96CDCD" d="M124.283,114.639c-0.729-0.724-1.818-1.084-2.914-1.084c-1.09,0-1.824,0.543-2.908,1.456
							c-4.731,4.359-10.188,7.273-16.004,9.453c-3.998,1.457-9.635,2.181-17.274,2.181c-13.096,0-23.824-4.359-32.184-13.451
							c-8.734-9.465-13.1-22.193-13.1-37.83c0-15.637,4.545-28.19,13.281-37.645c11.099-11.688,26.312-15.957,46-12.677
							c3.023,0.566,13.729,2.672,15.502,4.387c0.072,0.095,0.15,0.188,0.227,0.295c0.113,0.281,0.203,0.552,0.279,0.812
							c0.115,1.289,0.207,2.17,0.285,2.798v0.001l0,0c0.205,1.656,0.311,1.497,0.441,2.024c0.366,2.186,1.823,3.275,4.004,3.275
							h8.725V28.079V17.892c-16.436-6.134-29.988-9.226-40.152-9.269c-19.904,0.044-36.266,6.402-48.23,18.732
							C28.264,39.718,22.076,55.722,22.076,75.361c0,19.646,5.826,35.641,17.098,48.013c11.273,12.367,26.549,18.551,45.1,18.551
							c20.009,0,35.646-6.551,46.916-19.641L124.283,114.639z"/>
					</g>
				</g>
				<g>
					<g>
						<path fill="#EE3646" d="M73.303,8.619c0.072,0,0.148,0.004,0.221,0.004c0.068,0,0.135-0.004,0.203-0.004H73.303z"/>
						<path fill="#EE3646" d="M109.314,114.639c-0.729-0.724-1.818-1.084-2.914-1.084c-1.09,0-1.822,0.543-2.908,1.456
							c-4.729,4.359-10.186,7.273-16.004,9.453c-3.998,1.457-9.633,2.181-17.273,2.181c-13.096,0-23.826-4.359-32.184-13.451
							C29.295,103.729,24.929,91,24.929,75.363c0-15.637,4.547-28.19,13.281-37.645c11.1-11.688,26.314-15.957,46.002-12.677
							c3.022,0.566,13.729,2.672,15.502,4.387c0.07,0.095,0.149,0.188,0.225,0.295c0.115,0.281,0.205,0.552,0.281,0.812
							c0.113,1.289,0.205,2.17,0.283,2.798v0.001l0,0c0.207,1.656,0.311,1.497,0.44,2.024c0.367,2.186,1.824,3.275,4.005,3.275
							h8.727V28.079V17.892C97.24,11.758,83.688,8.666,73.523,8.623c-19.904,0.044-36.268,6.402-48.232,18.732
							C13.297,39.718,7.107,55.722,7.107,75.361c0,19.646,5.828,35.641,17.1,48.013c11.271,12.367,26.547,18.551,45.098,18.551
							c20.008,0,35.646-6.551,46.918-19.641L109.314,114.639z"/>
					</g>
				</g>
				<path fill="#7D6B6E" d="M113.298,119.048c0,0-0.78,0.336-4.836,2.804c-4.055,2.467-11.86,4.115-16.694,4.698
					c-4.832,0.583-13.029-0.282-13.029-0.282l-0.003-0.01c-2.517,0.252-5.335,0.387-8.521,0.387
					c-13.096,0-23.826-4.359-32.184-13.451C29.295,103.729,24.929,91,24.929,75.363c0-15.637,4.547-28.19,13.281-37.645
					c2.229-2.347,4.633-4.38,7.195-6.128c0.017-0.017,0.031-0.038,0.049-0.051c0.426-0.314,0.994-0.678,1.662-1.065
					c4.398-2.694,9.273-4.542,14.629-5.561c0.371-0.077,0.744-0.152,1.115-0.217c0.301-0.053,0.609-0.096,0.917-0.141
					c0.081-0.012,0.161-0.025,0.242-0.037c0.664-0.093,1.341-0.168,2.022-0.229c0.457-0.041,0.916-0.074,1.374-0.104
					c3.362-0.263,6.891-0.237,10.597,0.09c0.209,0.015,0.408,0.029,0.582,0.043c0.711,0.056,1.136,0.099,1.136,0.099
					s3.62-0.535,5.12-0.451s12.5,0.666,21,2.416c6.805,1.401,7.728,2.103,7.823,2.327v-0.631V17.892c0,0-9.862-3.721-19.163-6.123
					c-7.671-1.981-13.734-2.745-14.288-2.745c-3.37,0-10.33,1.742-19.909,6.07C52.105,18.802,40.318,26.249,34.852,33.3
					c-5.174,6.672-9.876,17.128-11.809,26.134c-1.504,7.009-0.941,20.699,0.142,29.699s5.25,18.584,9.667,25.667
					c4.416,7.083,10.333,13.417,21,19.917c10.299,6.276,22.237,6.838,23.049,6.868c0.125-0.011,0.245-0.028,0.369-0.04
					c1.232-0.055,5.647-0.555,9.765-1.605c2.034-0.49,3.971-1.09,5.926-1.744c2.856-0.954,5.692-2.174,9.008-4.104
					c1.395-0.795,2.811-1.569,4.057-2.579c2.441-1.677,4.77-3.521,6.789-5.595c2.021-2.077,3.41-3.631,3.41-3.631L113.298,119.048z"
					/>
			</g>
		</g>
		<path fill="#EE3646" d="M26.773,47.708c0,0,6.041-11.822,11.201-17.238c6.816-7.153,9.131-8.333,12.062-9.989
			c8.692-4.909-6.14-1.178-6.14-1.178L24.314,33.886v8.5C24.314,42.386,25.645,48.816,26.773,47.708z"/>
	</g>
</g>
</svg>
