<?xml version="1.0" encoding="utf-8"?>
<!-- Generator: Adobe Illustrator 16.0.0, SVG Export Plug-In . SVG Version: 6.00 Build 0)  -->
<!DOCTYPE svg PUBLIC "-//W3C//DTD SVG 1.1//EN" "http://www.w3.org/Graphics/SVG/1.1/DTD/svg11.dtd">
<svg version="1.1" xmlns="http://www.w3.org/2000/svg" xmlns:xlink="http://www.w3.org/1999/xlink" x="0px" y="0px"
	 width="159.593px" height="148px" viewBox="0 0 159.593 148" enable-background="new 0 0 159.593 148" xml:space="preserve">
<g id="Layer_1">
</g>
<g id="Layer_2">
	<g>
		<g>
			<path fill="#E82325" stroke="#E82325" stroke-width="0.8" stroke-miterlimit="10" d="M72.582,59.434
				c1.699,0,3.277,0.594,4.479,1.521c0.12,0.1,0.159,0.259,0.081,0.356c-0.116,0.117-0.277,0.14-0.373,0.036
				c-1.146-0.885-2.589-1.397-4.188-1.397c-3.652,0-6.654,2.9-6.654,6.471c0,3.616,3.002,6.517,6.654,6.517
				c1.58,0,3.02-0.512,4.166-1.398c0.117-0.081,0.278-0.081,0.377,0.038c0.096,0.096,0.057,0.255-0.063,0.354
				c-1.241,0.929-2.78,1.521-4.479,1.521c-3.949-0.018-7.165-3.158-7.165-7.031C65.417,62.595,68.633,59.434,72.582,59.434z"/>
			<path fill="#E82325" stroke="#E82325" stroke-width="0.8" stroke-miterlimit="10" d="M88.719,69.699h-6.911l-1.323,3.539
				c-0.017,0.096-0.114,0.179-0.214,0.179c-0.02,0-0.06-0.028-0.101-0.028c-0.118-0.055-0.178-0.19-0.118-0.332l4.978-13.267
				c0.039-0.118,0.137-0.178,0.254-0.158c0.098,0,0.197,0.058,0.258,0.158l4.973,13.267c0.062,0.142-0.018,0.277-0.139,0.332
				c-0.035,0-0.059,0.028-0.076,0.028c-0.1,0-0.197-0.083-0.256-0.179L88.719,69.699z M82.006,69.192h6.516l-3.258-8.652
				L82.006,69.192z"/>
			<path fill="#E82325" stroke="#E82325" stroke-width="0.8" stroke-miterlimit="10" d="M92.635,71.558
				c-0.1-0.1-0.119-0.255-0.018-0.356c0.096-0.096,0.256-0.114,0.355-0.018c0.018,0.018,2.092,1.873,4.795,1.873
				c2.666,0,4.74-1.499,4.74-3.413c0-2.195-2.113-2.688-4.342-3.203c-2.293-0.53-4.658-1.084-4.658-3.612
				c0-1.791,1.912-3.271,4.279-3.271c2.727,0,4.148,1.596,4.205,1.677c0.102,0.096,0.082,0.256-0.018,0.352
				c-0.121,0.082-0.279,0.082-0.357-0.018c-0.02-0.021-1.342-1.503-3.83-1.503c-2.07,0-3.77,1.247-3.77,2.764
				c0,2.114,2.074,2.611,4.266,3.123c2.33,0.533,4.717,1.081,4.717,3.692c0,2.188-2.291,3.906-5.232,3.906
				C94.869,73.55,92.713,71.637,92.635,71.558z"/>
			<path fill="#E82325" stroke="#E82325" stroke-width="0.8" stroke-miterlimit="10" d="M114.023,69.699h-6.91l-1.322,3.539
				c-0.021,0.096-0.119,0.179-0.215,0.179c-0.021,0-0.064-0.028-0.102-0.028c-0.117-0.055-0.178-0.19-0.117-0.332l4.977-13.267
				c0.041-0.118,0.135-0.178,0.256-0.158c0.096,0,0.195,0.058,0.254,0.158l4.975,13.267c0.062,0.142-0.018,0.277-0.137,0.332
				c-0.039,0-0.061,0.028-0.078,0.028c-0.102,0-0.201-0.083-0.256-0.179L114.023,69.699z M107.311,69.192h6.516l-3.26-8.652
				L107.311,69.192z"/>
			<path fill="#E82325" stroke="#E82325" stroke-width="0.8" stroke-miterlimit="10" d="M117.939,71.558
				c-0.102-0.1-0.119-0.255-0.02-0.356c0.098-0.096,0.256-0.114,0.357-0.018c0.018,0.018,2.088,1.873,4.795,1.873
				c2.662,0,4.736-1.499,4.736-3.413c0-2.195-2.111-2.688-4.34-3.203c-2.293-0.53-4.662-1.084-4.662-3.612
				c0-1.791,1.918-3.271,4.285-3.271c2.725,0,4.145,1.596,4.203,1.677c0.102,0.096,0.078,0.256-0.016,0.352
				c-0.119,0.082-0.279,0.082-0.357-0.018c-0.02-0.021-1.342-1.503-3.83-1.503c-2.07,0-3.77,1.247-3.77,2.764
				c0,2.114,2.07,2.611,4.262,3.123c2.328,0.533,4.721,1.081,4.721,3.692c0,2.188-2.293,3.906-5.232,3.906
				C120.172,73.55,118.018,71.637,117.939,71.558z"/>
			<path fill="#E82325" stroke="#E82325" stroke-width="0.8" stroke-miterlimit="10" d="M72.582,83.141
				c1.699,0,3.277,0.594,4.479,1.521c0.12,0.097,0.159,0.256,0.081,0.354c-0.116,0.115-0.277,0.139-0.373,0.042
				c-1.146-0.89-2.589-1.405-4.188-1.405c-3.652,0-6.654,2.903-6.654,6.478c0,3.61,3.002,6.514,6.654,6.514
				c1.58,0,3.02-0.516,4.166-1.401c0.117-0.079,0.278-0.079,0.377,0.035c0.096,0.104,0.057,0.262-0.063,0.357
				c-1.241,0.926-2.78,1.521-4.479,1.521c-3.949-0.02-7.165-3.161-7.165-7.025C65.417,86.3,68.633,83.141,72.582,83.141z"/>
			<path fill="#E82325" stroke="#E82325" stroke-width="0.8" stroke-miterlimit="10" d="M86.982,83.141
				c3.73,0,6.711,3.179,6.752,7.127c-0.041,3.965-3.021,7.144-6.752,7.144s-6.712-3.179-6.731-7.144
				C80.271,86.319,83.252,83.141,86.982,83.141z M86.982,96.88c3.375-0.036,6.18-2.959,6.197-6.612
				c-0.018-3.674-2.822-6.615-6.197-6.615c-3.396,0-6.2,2.941-6.2,6.615C80.782,93.921,83.587,96.844,86.982,96.88z"/>
			<path fill="#E82325" stroke="#E82325" stroke-width="0.8" stroke-miterlimit="10" d="M96.803,83.597
				c0-0.16,0.1-0.256,0.258-0.256c0.119,0,0.236,0.096,0.236,0.256v13.302c0,0.16-0.117,0.257-0.236,0.257
				c-0.158,0-0.258-0.097-0.258-0.257V83.597z"/>
			<path fill="#E82325" stroke="#E82325" stroke-width="0.8" stroke-miterlimit="10" d="M113.748,84.342l-5.035,7.013
				c-0.059,0.057-0.137,0.097-0.217,0.097h-0.039c-0.1,0-0.18-0.04-0.219-0.097l-5.055-7.031v12.575
				c0,0.143-0.098,0.257-0.234,0.257c-0.139,0-0.26-0.114-0.26-0.257V83.614c0-0.121,0.121-0.255,0.26-0.255
				c0.018,0,0.037,0,0.061,0.019c0.059,0,0.119,0.037,0.174,0.077l5.291,7.344l5.293-7.344c0.037-0.04,0.1-0.077,0.154-0.077
				c0.02-0.019,0.043-0.019,0.061-0.019c0.158,0,0.256,0.134,0.256,0.255v13.284c0,0.143-0.098,0.257-0.256,0.257
				c-0.115,0-0.234-0.114-0.234-0.257V84.342z"/>
			<path fill="#E82325" stroke="#E82325" stroke-width="0.8" stroke-miterlimit="10" d="M119.361,83.597
				c0-0.142,0.098-0.256,0.258-0.256h0.037h3.123c1.832,0,3.334,1.498,3.334,3.312c0,1.265-0.689,2.329-1.717,2.903
				c1.775,0.338,3.117,1.896,3.117,3.75c0,2.132-1.697,3.85-3.826,3.85h-4.031h-0.037c-0.16,0-0.258-0.114-0.258-0.257V83.597z
				 M122.779,89.459c1.557,0,2.805-1.245,2.822-2.807c-0.018-1.539-1.266-2.781-2.822-2.822h-2.922v5.629H122.779z M123.688,96.661
				c1.854,0,3.316-1.498,3.316-3.355c0-1.818-1.463-3.316-3.316-3.316h-3.83v6.672H123.688z"/>
			<path fill="#E82325" stroke="#E82325" stroke-width="0.8" stroke-miterlimit="10" d="M138.223,94.173
				c0-0.963-0.434-1.638-0.986-2.128c-0.535-0.475-1.324-1.027-3.496-1.027h-2.428v5.881c0,0.143-0.096,0.257-0.236,0.257
				c-0.139,0-0.256-0.114-0.256-0.257V83.597c0-0.142,0.117-0.256,0.256-0.256h0.018h0.021h4.008c2.113,0,3.848,1.717,3.848,3.845
				c0,1.759-1.164,3.221-2.762,3.673c0.236,0.101,0.475,0.215,0.711,0.355c0.869,0.493,1.795,1.441,1.795,2.959
				c0,1.125,0.156,1.739,0.297,2.02c0.139,0.254,0.256,0.236,0.314,0.236c0.16-0.019,0.299,0.076,0.316,0.196
				c0.041,0.255-0.178,0.314-0.338,0.314c-0.193,0-0.508-0.137-0.709-0.529C138.363,96.013,138.223,95.36,138.223,94.173z
				 M135.123,90.506h0.039c1.814-0.019,3.297-1.461,3.297-3.32c0-1.854-1.502-3.355-3.336-3.355h-3.811v6.676H135.123z"/>
			<path fill="#E82325" stroke="#E82325" stroke-width="0.8" stroke-miterlimit="10" d="M151.197,93.402h-6.908l-1.322,3.537
				c-0.021,0.102-0.115,0.178-0.215,0.178c-0.02,0-0.061-0.021-0.102-0.021c-0.119-0.055-0.178-0.197-0.119-0.338l4.977-13.265
				c0.041-0.115,0.139-0.174,0.258-0.152c0.096,0,0.195,0.056,0.254,0.152l4.975,13.265c0.062,0.141-0.02,0.283-0.137,0.338
				c-0.039,0-0.061,0.021-0.078,0.021c-0.102,0-0.197-0.076-0.258-0.178L151.197,93.402z M144.486,92.895h6.516l-3.26-8.649
				L144.486,92.895z"/>
			<g>
				<g>
					<g>
						<path fill="#129DCB" d="M88.271,8.619c0.07,0,0.146,0.004,0.219,0.004c0.068,0,0.135-0.004,0.203-0.004H88.271z"/>
						<path fill="#96CDCD" d="M124.283,114.639c-0.729-0.724-1.818-1.085-2.914-1.085c-1.09,0-1.824,0.543-2.908,1.457
							c-4.732,4.359-10.188,7.273-16.004,9.453c-3.998,1.457-9.635,2.18-17.275,2.18c-13.096,0-23.824-4.359-32.184-13.451
							c-8.734-9.464-13.1-22.193-13.1-37.83s4.545-28.19,13.281-37.644c11.099-11.688,26.312-15.957,46-12.677
							c3.023,0.566,13.729,2.672,15.502,4.387c0.072,0.095,0.15,0.188,0.227,0.295c0.113,0.281,0.203,0.552,0.279,0.812
							c0.115,1.289,0.207,2.17,0.285,2.798v0.001l0,0c0.205,1.656,0.311,1.497,0.441,2.024c0.367,2.186,1.824,3.275,4.004,3.275
							h8.725V28.079V17.892c-16.436-6.134-29.988-9.226-40.152-9.269c-19.904,0.044-36.266,6.402-48.23,18.732
							C28.264,39.718,22.076,55.722,22.076,75.362c0,19.646,5.826,35.64,17.098,48.012c11.273,12.367,26.549,18.551,45.1,18.551
							c20.008,0,35.645-6.551,46.916-19.641L124.283,114.639z"/>
					</g>
				</g>
				<g>
					<g>
						<path fill="#EE3646" d="M73.303,8.619c0.072,0,0.148,0.004,0.221,0.004c0.068,0,0.135-0.004,0.203-0.004H73.303z"/>
						<path fill="#EE3646" d="M109.314,114.639c-0.729-0.724-1.818-1.085-2.914-1.085c-1.09,0-1.822,0.543-2.908,1.457
							c-4.73,4.359-10.186,7.273-16.004,9.453c-3.998,1.457-9.633,2.18-17.273,2.18c-13.096,0-23.826-4.359-32.184-13.451
							c-8.736-9.464-13.102-22.193-13.102-37.83s4.547-28.19,13.281-37.644c11.1-11.688,26.314-15.957,46.002-12.677
							c3.023,0.566,13.729,2.672,15.502,4.387c0.07,0.095,0.15,0.188,0.225,0.295c0.115,0.281,0.205,0.552,0.281,0.812
							c0.113,1.289,0.205,2.17,0.283,2.798v0.001l0,0c0.207,1.656,0.311,1.497,0.441,2.024c0.367,2.186,1.824,3.275,4.004,3.275
							h8.727V28.079V17.892C97.24,11.758,83.688,8.666,73.523,8.623c-19.904,0.044-36.268,6.402-48.232,18.732
							C13.297,39.718,7.107,55.722,7.107,75.362c0,19.646,5.828,35.64,17.1,48.012c11.271,12.367,26.547,18.551,45.098,18.551
							c20.008,0,35.645-6.551,46.918-19.641L109.314,114.639z"/>
					</g>
				</g>
				<path fill="#7D6B6E" d="M113.299,119.048c0,0-0.781,0.336-4.836,2.803s-11.861,4.116-16.695,4.699
					c-4.832,0.583-13.029-0.283-13.029-0.283l-0.003-0.009c-2.517,0.252-5.335,0.386-8.521,0.386
					c-13.096,0-23.826-4.359-32.184-13.451c-8.736-9.464-13.102-22.193-13.102-37.83s4.547-28.19,13.281-37.644
					c2.229-2.347,4.633-4.38,7.195-6.128c0.017-0.017,0.031-0.038,0.049-0.051c0.426-0.314,0.994-0.678,1.662-1.065
					c4.398-2.694,9.273-4.542,14.629-5.561c0.371-0.077,0.744-0.152,1.115-0.217c0.301-0.053,0.609-0.096,0.917-0.141
					c0.081-0.012,0.161-0.025,0.242-0.037c0.664-0.093,1.341-0.168,2.022-0.229c0.457-0.041,0.916-0.074,1.374-0.104
					c3.362-0.263,6.891-0.237,10.597,0.09c0.209,0.015,0.408,0.029,0.582,0.043c0.711,0.056,1.136,0.099,1.136,0.099
					s3.62-0.535,5.12-0.451s12.5,0.666,21,2.416c6.805,1.401,7.727,2.103,7.824,2.327v-0.631V17.892c0,0-9.863-3.721-19.164-6.123
					c-7.67-1.981-13.734-2.745-14.288-2.745c-3.37,0-10.33,1.742-19.909,6.07C52.105,18.802,40.318,26.249,34.852,33.3
					c-5.174,6.672-9.876,17.128-11.809,26.134c-1.504,7.009-0.941,20.699,0.142,29.699s5.25,18.584,9.667,25.667
					c4.416,7.083,10.333,13.417,21,19.917c10.299,6.276,22.237,6.837,23.049,6.868c0.125-0.011,0.245-0.028,0.369-0.04
					c1.232-0.055,5.648-0.555,9.764-1.605c2.035-0.491,3.971-1.091,5.926-1.744c2.857-0.955,5.693-2.174,9.008-4.105
					c1.395-0.795,2.811-1.569,4.057-2.579c2.441-1.677,4.77-3.521,6.789-5.595c2.021-2.077,3.41-3.631,3.41-3.631L113.299,119.048z"
					/>
			</g>
		</g>
		<path fill="#EE3646" d="M26.773,47.708c0,0,6.041-11.822,11.201-17.238c6.816-7.153,9.131-8.333,12.062-9.989
			c8.692-4.909-6.14-1.178-6.14-1.178L24.314,33.886v8.5C24.314,42.386,25.645,48.816,26.773,47.708z"/>
	</g>
</g>
</svg>
