<?xml version="1.0" encoding="utf-8"?>
<!-- Generator: Adobe Illustrator 16.0.0, SVG Export Plug-In . SVG Version: 6.00 Build 0)  -->
<!DOCTYPE svg PUBLIC "-//W3C//DTD SVG 1.1//EN" "http://www.w3.org/Graphics/SVG/1.1/DTD/svg11.dtd">
<svg version="1.1" id="Layer_1" xmlns="http://www.w3.org/2000/svg" xmlns:xlink="http://www.w3.org/1999/xlink" x="0px" y="0px"
	 width="1070px" height="1076px" viewBox="0 0 1070 1076" enable-background="new 0 0 1070 1076" xml:space="preserve">
<g id="Layer_1_1_">
</g>
<g id="Layer_4">
</g>
<g id="Layer_6">
	<rect fill="#D8EEF0" width="1070" height="1086.532"/>
	<path fill="#FFFFFF" d="M1070,1091.13H0V694.064c0,0,176.083-25.957,243.087-32.273c125.964-11.875,377.054-43.826,502.796-57.907
		c94.014-10.529,324.116-41.73,324.116-41.73V1091.13z"/>
	<g>
		<g>
			<g>
				<defs>
					<path id="SVGID_1_" d="M1070,1061.557c0,7.129-5.582,12.912-12.466,12.912H12.466c-6.885,0-12.466-5.781-12.466-12.912V18.321
						c0-7.13,5.582-12.913,12.466-12.913h1045.068c6.884,0,12.466,5.781,12.466,12.913V1061.557z"/>
				</defs>
				<clipPath id="SVGID_2_">
					<use xlink:href="#SVGID_1_"  overflow="visible"/>
				</clipPath>
				<g opacity="0.1" clip-path="url(#SVGID_2_)">
					<g>
						<g>
							<path fill="#129DCB" d="M415.188,181.201c0.496,0.004,1.034,0.032,1.539,0.028c0.478,0,0.939-0.028,1.417-0.028H415.188z"/>
							<path fill="#96CDCD" d="M667.741,934.188c-5.112-5.138-12.75-7.705-20.425-7.701c-7.64,0.005-12.779,3.856-20.38,10.353
								c-33.148,30.972-71.375,51.678-112.147,67.17c-28.01,10.364-67.51,15.496-121.059,15.511
								c-91.773,0.022-166.978-30.917-225.568-95.481c-61.231-67.212-91.848-157.616-91.873-268.683
								c-0.026-111.065,31.81-200.243,93.015-267.401c77.763-83.035,184.385-113.381,322.363-90.117
								c21.188,4.013,96.213,18.955,108.65,31.128c0.498,0.672,1.048,1.343,1.575,2.095c0.804,1.996,1.437,3.92,1.97,5.768
								c0.801,9.155,1.449,15.408,1.999,19.872v0.004l0,0c1.448,11.764,2.18,10.633,3.098,14.379
								c2.572,15.524,12.783,23.26,28.061,23.254l61.152-0.015l-0.019-74.965l-0.015-72.361
								c-115.199-43.542-210.186-65.481-281.412-65.768c-139.494,0.351-254.157,45.54-337.99,133.137
								C-5.303,402.197-48.645,515.881-48.613,655.385C-48.581,794.93-7.717,908.517,71.296,996.379
								c79.022,87.821,186.082,131.716,316.09,131.686c140.221-0.038,249.793-46.593,328.771-139.587L667.741,934.188z"/>
						</g>
					</g>
					<g>
						<g>
							<path fill="#EE3646" d="M310.285,181.229c0.504,0,1.035,0.028,1.54,0.028c0.482,0,0.946-0.028,1.429-0.034L310.285,181.229z"
								/>
							<path fill="#EE3646" d="M562.842,934.212c-5.104-5.139-12.746-7.703-20.422-7.7c-7.637,0-12.777,3.854-20.38,10.354
								c-33.149,30.964-71.374,51.673-112.142,67.17c-28.021,10.359-67.516,15.498-121.058,15.509
								c-91.78,0.021-166.98-30.921-225.569-95.482C2.027,856.855-28.584,766.445-28.607,655.377
								c-0.027-111.063,31.809-200.243,93.013-267.4c77.769-83.037,184.382-113.383,322.362-90.119
								c21.188,4.014,96.212,18.956,108.646,31.132c0.499,0.673,1.06,1.34,1.582,2.097c0.8,1.998,1.431,3.917,1.964,5.762
								c0.805,9.156,1.45,15.412,2.001,19.873v0.004l0,0c1.447,11.765,2.179,10.637,3.094,14.382
								c2.579,15.52,12.792,23.256,28.065,23.256l61.155-0.019l-0.02-74.965l-0.017-72.359
								c-115.197-43.541-210.184-65.48-281.416-65.767C172.335,181.604,57.677,226.79-26.158,314.394
								c-84.042,87.83-127.383,201.512-127.353,341.021c0.031,139.544,40.897,253.132,119.908,340.988
								c79.023,87.824,186.086,131.715,316.089,131.685c140.222-0.032,249.794-46.592,328.779-139.581L562.842,934.212z"/>
						</g>
					</g>
					<path fill="#7D6B6E" d="M590.765,965.529c0,0-5.469,2.382-33.88,19.906c-28.415,17.531-83.124,29.258-116.993,33.407
						c-33.871,4.146-91.318-1.987-91.318-1.987l-0.018-0.063c-17.639,1.791-37.387,2.744-59.715,2.748
						c-91.78,0.021-166.98-30.921-225.569-95.482C2.027,856.855-28.584,766.445-28.607,655.377
						c-0.027-111.063,31.809-200.243,93.013-267.4c15.615-16.672,32.453-31.114,50.413-43.537c0.116-0.116,0.222-0.268,0.338-0.362
						c2.986-2.232,6.975-4.816,11.645-7.571c30.819-19.144,64.993-32.273,102.515-39.518c2.605-0.546,5.216-1.084,7.824-1.542
						c2.103-0.373,4.264-0.677,6.422-0.997c0.566-0.088,1.126-0.182,1.696-0.267c4.653-0.658,9.397-1.193,14.177-1.636
						c3.2-0.291,6.415-0.531,9.627-0.732c23.56-1.875,48.292-1.702,74.258,0.615c1.472,0.109,2.863,0.208,4.086,0.302
						c4.98,0.399,7.958,0.7,7.958,0.7s25.362-3.802,35.875-3.21c10.517,0.593,87.604,4.71,147.181,17.128
						c47.691,9.938,54.151,14.922,54.834,16.511v-4.479l-0.016-72.359c0,0-69.123-26.408-134.314-43.459
						c-53.75-14.06-105.293-19.345-109.172-19.285c-8.581,0.145-77.673,15.412-140.156,37.916
						c-62.482,22.503-129.627,89.413-168.744,134.401C1.727,401.592-23.361,478.548-38.095,542.243
						c-14.738,63.694-10.332,147.021-2.726,210.949c7.611,63.923,36.824,131.987,67.789,182.292
						c30.963,50.309,72.44,95.283,147.205,141.435c72.189,44.565,155.857,48.522,161.542,48.747
						c0.876-0.083,1.717-0.212,2.594-0.289c8.37-1.131,39.288-5.447,68.413-11.418c14.262-3.493,28.113-7.606,41.531-12.396
						c19.454-7.497,39.479-17.286,63.119-29.179c9.777-5.649,19.218-11.812,28.428-18.327c35.15-26.583,71.467-65.547,71.467-65.547
						L590.765,965.529z"/>
				</g>
			</g>
		</g>
	</g>
</g>
<g id="Layer_2">
	<rect x="76.869" y="212.905" fill="none" width="142.754" height="30.912"/>
	<text transform="matrix(1 0 0 1 108.1572 222.7051)" fill="#EE3646" font-family="'ArialMT'" font-size="14">Fotografias </text>
	<text transform="matrix(1 0 0 1 101.3818 239.5049)" fill="#EE3646" font-family="'ArialMT'" font-size="14">e Publicidade</text>
	<rect x="269.5" y="63.348" fill="none" width="142.754" height="44.036"/>
	<text transform="matrix(1 0 0 1 284.9648 145.4639)" fill="#EE3646" font-family="'ArialMT'" font-size="22">Gestão de </text>
	<text transform="matrix(1 0 0 1 304.4116 171.8623)" fill="#EE3646" font-family="'ArialMT'" font-size="22">Visitas</text>
	<rect x="462.232" y="136.645" fill="none" width="142.754" height="44.036"/>
	<text transform="matrix(1 0 0 1 474.3809 149.2441)" fill="#EE3646" font-family="'ArialMT'" font-size="18">Apartamento</text>
	<text transform="matrix(1 0 0 1 491.3999 170.8447)" fill="#EE3646" font-family="'ArialMT'" font-size="18">completo</text>
	<rect x="654.964" y="147.654" fill="none" width="142.754" height="22.018"/>
	<text transform="matrix(1 0 0 1 690.0537 160.2539)" fill="#EE3646" font-family="'ArialMT'" font-size="18">Quartos</text>
	<rect x="857.454" y="147.654" fill="none" width="142.754" height="22.018"/>
	<text transform="matrix(1 0 0 1 899.1406 160.2539)" fill="#EE3646" font-family="'ArialMT'" font-size="18">Airbnb</text>
	<rect x="603.207" y="74.291" fill="none" width="219.5" height="22.018"/>
	<text transform="matrix(1 0 0 1 617.2803 89.6914)" fill="#EE3646" font-family="'ArialMT'" font-size="22">Gestão Completa</text>
	<rect x="74.216" y="286.734" fill="none" width="145.784" height="29.306"/>
	<text transform="matrix(1 0 0 1 75.0156 296.5342)" fill="#EE3646" font-family="'ArialMT'" font-size="14">Gestão de contactos </text>
	<text transform="matrix(1 0 0 1 118.7168 313.334)" fill="#EE3646" font-family="'ArialMT'" font-size="14">e visitas</text>
	<rect x="79.246" y="363.189" fill="none" width="135.754" height="42.812"/>
	<text transform="matrix(1 0 0 1 108.1055 372.9893)" fill="#EE3646" font-family="'ArialMT'" font-size="14">Elaboração </text>
	<text transform="matrix(1 0 0 1 101.9873 389.7891)" fill="#EE3646" font-family="'ArialMT'" font-size="14">do contracto</text>
	<rect x="83.246" y="433.458" fill="none" width="127" height="44.209"/>
	<text transform="matrix(1 0 0 1 94.6943 443.2578)" fill="#EE3646" font-family="'ArialMT'" font-size="14">Apoio 24/7 aos </text>
	<text transform="matrix(1 0 0 1 110.3184 460.0576)" fill="#EE3646" font-family="'ArialMT'" font-size="14">residentes</text>
	<rect x="76.246" y="514.963" fill="none" width="141.377" height="11.563"/>
	<text transform="matrix(1 0 0 1 76.2461 524.7627)" fill="#EE3646" font-family="'ArialMT'" font-size="14">Emissão de recibos</text>
	<rect x="79.812" y="570.913" fill="none" width="134.377" height="55.587"/>
	<text transform="matrix(1 0 0 1 80.6553 580.7129)" fill="#EE3646" font-family="'ArialMT'" font-size="14">Gestão de arranjos </text>
	<text transform="matrix(1 0 0 1 86.2266 597.5127)" fill="#EE3646" font-family="'ArialMT'" font-size="14">e manutenção do </text>
	<text transform="matrix(1 0 0 1 123.8164 614.3145)" fill="#EE3646" font-family="'ArialMT'" font-size="14">imóvel</text>
	<rect x="78.623" y="653.835" fill="none" width="136.754" height="28.725"/>
	<text transform="matrix(1 0 0 1 79.3389 663.6348)" fill="#EE3646" font-family="'ArialMT'" font-size="14">Relatório trimestral </text>
	<text transform="matrix(1 0 0 1 112.7773 680.4346)" fill="#EE3646" font-family="'ArialMT'" font-size="14">de contas</text>
	<rect x="68.567" y="718.381" fill="none" width="156.864" height="46.359"/>
	<text transform="matrix(1 0 0 1 71.2959 728.1807)" fill="#EE3646" font-family="'ArialMT'" font-size="14">Controlo dos serviços </text>
	<text transform="matrix(1 0 0 1 108.5566 744.9805)" fill="#EE3646" font-family="'ArialMT'" font-size="14">de limpeza </text>
	<text transform="matrix(1 0 0 1 79.6113 761.7813)" fill="#EE3646" font-family="'ArialMT'" font-size="14">(staff/consumíveis)</text>
	<rect x="59.746" y="800.979" fill="none" width="174.508" height="27.561"/>
	<text transform="matrix(1 0 0 1 69.7559 810.7793)" fill="#EE3646" font-family="'ArialMT'" font-size="14">Pagamento e controlo </text>
	<text transform="matrix(1 0 0 1 71.8838 827.5791)" fill="#EE3646" font-family="'ArialMT'" font-size="14">de contas e despesas</text>
	<rect x="63.746" y="873.366" fill="none" width="166.508" height="29.181"/>
	<text transform="matrix(1 0 0 1 66.1445 883.166)" fill="#EE3646" font-family="'ArialMT'" font-size="14">Gestão dos serviços de </text>
	<text transform="matrix(1 0 0 1 109.9004 899.9658)" fill="#EE3646" font-family="'ArialMT'" font-size="14">lavandaria</text>
	<rect x="56.269" y="946.745" fill="none" width="181.754" height="27.813"/>
	<text transform="matrix(1 0 0 1 93.5967 956.5449)" fill="#EE3646" font-family="'ArialMT'" font-size="14">Manutenção de </text>
	<text transform="matrix(1 0 0 1 104.376 973.3447)" fill="#EE3646" font-family="'ArialMT'" font-size="14">consumíveis</text>
	<polyline fill="none" stroke="#EE3646" stroke-width="5" stroke-miterlimit="10" points="325.534,226.579 335.658,241.766 
		354.221,213.077 	"/>
	<polyline fill="none" stroke="#EE3646" stroke-width="5" stroke-miterlimit="10" points="518.267,226.579 528.391,241.766 
		546.953,213.077 	"/>
	<polyline fill="none" stroke="#EE3646" stroke-width="5" stroke-miterlimit="10" points="712.999,226.579 723.123,241.766 
		741.686,213.077 	"/>
	<polyline fill="none" stroke="#EE3646" stroke-width="5" stroke-miterlimit="10" points="906.731,226.579 916.855,241.766 
		935.418,213.077 	"/>
	<polyline fill="none" stroke="#EE3646" stroke-width="5" stroke-miterlimit="10" points="325.534,300.544 335.658,315.73 
		354.221,287.042 	"/>
	<polyline fill="none" stroke="#EE3646" stroke-width="5" stroke-miterlimit="10" points="518.267,300.544 528.391,315.73 
		546.953,287.042 	"/>
	<polyline fill="none" stroke="#EE3646" stroke-width="5" stroke-miterlimit="10" points="712.999,300.544 723.123,315.73 
		741.686,287.042 	"/>
	<polyline fill="none" stroke="#EE3646" stroke-width="5" stroke-miterlimit="10" points="906.731,300.544 916.855,315.73 
		935.418,287.042 	"/>
	<polyline fill="none" stroke="#EE3646" stroke-width="5" stroke-miterlimit="10" points="325.534,373.907 335.658,389.094 
		354.221,360.405 	"/>
	<polyline fill="none" stroke="#EE3646" stroke-width="5" stroke-miterlimit="10" points="518.267,373.907 528.391,389.094 
		546.953,360.405 	"/>
	<polyline fill="none" stroke="#EE3646" stroke-width="5" stroke-miterlimit="10" points="712.999,373.907 723.123,389.094 
		741.686,360.405 	"/>
	<polyline fill="none" stroke="#EE3646" stroke-width="5" stroke-miterlimit="10" points="906.731,373.907 916.855,389.094 
		935.418,360.405 	"/>
	<polyline fill="none" stroke="#EE3646" stroke-width="5" stroke-miterlimit="10" points="518.267,447.271 528.391,462.457 
		546.953,433.769 	"/>
	<polyline fill="none" stroke="#EE3646" stroke-width="5" stroke-miterlimit="10" points="712.999,447.271 723.123,462.457 
		741.686,433.769 	"/>
	<polyline fill="none" stroke="#EE3646" stroke-width="5" stroke-miterlimit="10" points="906.731,447.271 916.855,462.457 
		935.418,433.769 	"/>
	<polyline fill="none" stroke="#EE3646" stroke-width="5" stroke-miterlimit="10" points="518.267,520.634 528.391,535.82 
		546.953,507.132 	"/>
	<polyline fill="none" stroke="#EE3646" stroke-width="5" stroke-miterlimit="10" points="712.999,520.634 723.123,535.82 
		741.686,507.132 	"/>
	<polyline fill="none" stroke="#EE3646" stroke-width="5" stroke-miterlimit="10" points="906.731,520.634 916.855,535.82 
		935.418,507.132 	"/>
	<polyline fill="none" stroke="#EE3646" stroke-width="5" stroke-miterlimit="10" points="518.267,593.997 528.391,609.184 
		546.953,580.495 	"/>
	<polyline fill="none" stroke="#EE3646" stroke-width="5" stroke-miterlimit="10" points="712.999,593.997 723.123,609.184 
		741.686,580.495 	"/>
	<polyline fill="none" stroke="#EE3646" stroke-width="5" stroke-miterlimit="10" points="906.731,593.997 916.855,609.184 
		935.418,580.495 	"/>
	<polyline fill="none" stroke="#EE3646" stroke-width="5" stroke-miterlimit="10" points="518.267,667.36 528.391,682.547 
		546.953,653.858 	"/>
	<polyline fill="none" stroke="#EE3646" stroke-width="5" stroke-miterlimit="10" points="712.999,667.36 723.123,682.547 
		741.686,653.858 	"/>
	<polyline fill="none" stroke="#EE3646" stroke-width="5" stroke-miterlimit="10" points="906.731,667.36 916.855,682.547 
		935.418,653.858 	"/>
	<polyline fill="none" stroke="#EE3646" stroke-width="5" stroke-miterlimit="10" points="712.999,740.724 723.123,755.91 
		741.686,727.222 	"/>
	<polyline fill="none" stroke="#EE3646" stroke-width="5" stroke-miterlimit="10" points="906.731,740.724 916.855,755.91 
		935.418,727.222 	"/>
	<polyline fill="none" stroke="#EE3646" stroke-width="5" stroke-miterlimit="10" points="712.999,814.087 723.123,829.273 
		741.686,800.585 	"/>
	<polyline fill="none" stroke="#EE3646" stroke-width="5" stroke-miterlimit="10" points="906.731,814.087 916.855,829.273 
		935.418,800.585 	"/>
	<polyline fill="none" stroke="#EE3646" stroke-width="5" stroke-miterlimit="10" points="906.731,887.45 916.855,902.637 
		935.418,873.948 	"/>
	<polyline fill="none" stroke="#EE3646" stroke-width="5" stroke-miterlimit="10" points="906.731,960.813 916.855,976 
		935.418,947.313 	"/>
	<line fill="none" stroke="#EE3646" stroke-width="2" stroke-miterlimit="10" x1="244" y1="189.511" x2="244" y2="1000.168"/>
	
		<line fill="none" stroke="#EE3646" stroke-width="2" stroke-miterlimit="10" x1="422.596" y1="190.184" x2="422.596" y2="1000.841"/>
</g>
<g id="Layer_5" display="none">
	<g display="inline">
		<rect x="51.779" y="117.981" fill="none" stroke="#000000" stroke-miterlimit="10" width="192.732" height="880.019"/>
		<rect x="244.512" y="117.981" fill="none" stroke="#000000" stroke-miterlimit="10" width="192.731" height="880.019"/>
		<rect x="437.243" y="117.981" fill="none" stroke="#000000" stroke-miterlimit="10" width="192.729" height="880.019"/>
		<rect x="629.975" y="117.981" fill="none" stroke="#000000" stroke-miterlimit="10" width="192.732" height="880.019"/>
		<rect x="822.707" y="117.981" fill="none" stroke="#000000" stroke-miterlimit="10" width="192.729" height="880.019"/>
	</g>
	
		<rect x="244.512" y="44.619" display="inline" fill="none" stroke="#000000" stroke-miterlimit="10" width="192.731" height="73.492"/>
	
		<rect x="51.779" y="117.981" display="inline" fill="none" stroke="#000000" stroke-miterlimit="10" width="963.659" height="73.362"/>
	
		<rect x="51.779" y="191.344" display="inline" fill="none" stroke="#000000" stroke-miterlimit="10" width="963.659" height="73.361"/>
	
		<rect x="51.779" y="264.705" display="inline" fill="none" stroke="#000000" stroke-miterlimit="10" width="963.659" height="73.363"/>
	
		<rect x="51.779" y="338.068" display="inline" fill="none" stroke="#000000" stroke-miterlimit="10" width="963.659" height="73.361"/>
	
		<rect x="51.779" y="411.43" display="inline" fill="none" stroke="#000000" stroke-miterlimit="10" width="963.659" height="73.362"/>
	
		<rect x="51.779" y="484.792" display="inline" fill="none" stroke="#000000" stroke-miterlimit="10" width="963.659" height="73.362"/>
	
		<rect x="51.779" y="558.154" display="inline" fill="none" stroke="#000000" stroke-miterlimit="10" width="963.659" height="73.36"/>
	
		<rect x="51.779" y="631.517" display="inline" fill="none" stroke="#000000" stroke-miterlimit="10" width="963.659" height="73.362"/>
	
		<rect x="51.779" y="704.879" display="inline" fill="none" stroke="#000000" stroke-miterlimit="10" width="963.659" height="73.362"/>
	
		<rect x="51.779" y="924.638" display="inline" fill="none" stroke="#000000" stroke-miterlimit="10" width="963.659" height="73.362"/>
	
		<rect x="51.779" y="851.275" display="inline" fill="none" stroke="#000000" stroke-miterlimit="10" width="963.659" height="73.36"/>
	
		<rect x="437.243" y="44.619" display="inline" fill="none" stroke="#000000" stroke-miterlimit="10" width="578.194" height="73.362"/>
</g>
<g id="Layer_3">
</g>
</svg>
