<?xml version="1.0" encoding="utf-8"?>
<!-- Generator: Adobe Illustrator 16.0.0, SVG Export Plug-In . SVG Version: 6.00 Build 0)  -->
<!DOCTYPE svg PUBLIC "-//W3C//DTD SVG 1.1//EN" "http://www.w3.org/Graphics/SVG/1.1/DTD/svg11.dtd">
<svg version="1.1" xmlns="http://www.w3.org/2000/svg" xmlns:xlink="http://www.w3.org/1999/xlink" x="0px" y="0px"
	 width="152.167px" height="145.333px" viewBox="0 0 152.167 145.333" enable-background="new 0 0 152.167 145.333"
	 xml:space="preserve">
<g id="Layer_1">
	<g>
		<path fill="#5E5E5E" stroke="#5E5E5E" stroke-width="0.8" stroke-miterlimit="10" d="M61.863,53.204
			c1.809,0,3.49,0.632,4.771,1.62c0.128,0.105,0.17,0.275,0.087,0.379c-0.125,0.125-0.297,0.149-0.398,0.039
			c-1.221-0.942-2.756-1.488-4.459-1.488c-3.89,0-7.086,3.089-7.086,6.891c0,3.852,3.196,6.94,7.086,6.94
			c1.684,0,3.215-0.545,4.437-1.489c0.124-0.087,0.296-0.087,0.401,0.04c0.103,0.103,0.061,0.271-0.067,0.378
			c-1.322,0.989-2.962,1.619-4.771,1.619c-4.206-0.019-7.631-3.363-7.631-7.488C54.232,56.57,57.657,53.204,61.863,53.204z"/>
		<path fill="#5E5E5E" stroke="#5E5E5E" stroke-width="0.8" stroke-miterlimit="10" d="M79.048,64.136h-7.36l-1.408,3.77
			c-0.018,0.102-0.122,0.19-0.229,0.19c-0.021,0-0.062-0.03-0.107-0.03c-0.125-0.059-0.188-0.203-0.125-0.354l5.301-14.129
			c0.041-0.126,0.145-0.189,0.271-0.168c0.104,0,0.21,0.062,0.273,0.168l5.296,14.129c0.066,0.15-0.019,0.295-0.147,0.354
			c-0.038,0-0.062,0.03-0.081,0.03c-0.106,0-0.21-0.089-0.272-0.19L79.048,64.136z M71.898,63.597h6.939l-3.471-9.215L71.898,63.597
			z"/>
		<path fill="#5E5E5E" stroke="#5E5E5E" stroke-width="0.8" stroke-miterlimit="10" d="M83.218,66.115
			c-0.106-0.106-0.127-0.271-0.019-0.38c0.102-0.102,0.272-0.121,0.379-0.019c0.019,0.019,2.228,1.995,5.105,1.995
			c2.84,0,5.049-1.597,5.049-3.635c0-2.338-2.251-2.862-4.624-3.411c-2.442-0.565-4.961-1.154-4.961-3.848
			c0-1.907,2.036-3.483,4.558-3.483c2.903,0,4.418,1.699,4.478,1.785c0.108,0.103,0.088,0.272-0.019,0.375
			c-0.129,0.087-0.297,0.087-0.38-0.019c-0.021-0.022-1.43-1.601-4.079-1.601c-2.205,0-4.015,1.327-4.015,2.942
			c0,2.252,2.209,2.782,4.543,3.327c2.481,0.568,5.023,1.151,5.023,3.933c0,2.33-2.44,4.159-5.573,4.159
			C85.598,68.236,83.301,66.199,83.218,66.115z"/>
		<path fill="#5E5E5E" stroke="#5E5E5E" stroke-width="0.8" stroke-miterlimit="10" d="M105.996,64.136h-7.359l-1.408,3.77
			c-0.022,0.102-0.127,0.19-0.229,0.19c-0.023,0-0.068-0.03-0.108-0.03c-0.125-0.059-0.189-0.203-0.125-0.354l5.3-14.129
			c0.044-0.126,0.144-0.189,0.272-0.168c0.103,0,0.208,0.062,0.271,0.168l5.298,14.129c0.066,0.15-0.019,0.295-0.146,0.354
			c-0.042,0-0.064,0.03-0.083,0.03c-0.108,0-0.215-0.089-0.272-0.19L105.996,64.136z M98.847,63.597h6.939l-3.472-9.215
			L98.847,63.597z"/>
		<path fill="#5E5E5E" stroke="#5E5E5E" stroke-width="0.8" stroke-miterlimit="10" d="M110.166,66.115
			c-0.108-0.106-0.127-0.271-0.021-0.38c0.104-0.102,0.272-0.121,0.381-0.019c0.019,0.019,2.223,1.995,5.105,1.995
			c2.836,0,5.045-1.597,5.045-3.635c0-2.338-2.249-2.862-4.622-3.411c-2.442-0.565-4.965-1.154-4.965-3.848
			c0-1.907,2.042-3.483,4.563-3.483c2.901,0,4.413,1.699,4.476,1.785c0.108,0.103,0.084,0.272-0.017,0.375
			c-0.127,0.087-0.297,0.087-0.38-0.019c-0.021-0.022-1.43-1.601-4.079-1.601c-2.205,0-4.015,1.327-4.015,2.942
			c0,2.252,2.205,2.782,4.539,3.327c2.479,0.568,5.026,1.151,5.026,3.933c0,2.33-2.441,4.159-5.572,4.159
			C112.544,68.236,110.249,66.199,110.166,66.115z"/>
		<path fill="#5E5E5E" stroke="#5E5E5E" stroke-width="0.8" stroke-miterlimit="10" d="M61.863,78.45
			c1.809,0,3.49,0.633,4.771,1.619c0.128,0.104,0.17,0.272,0.087,0.378c-0.125,0.123-0.297,0.147-0.398,0.045
			c-1.221-0.947-2.756-1.497-4.459-1.497c-3.89,0-7.086,3.092-7.086,6.898c0,3.845,3.196,6.937,7.086,6.937
			c1.684,0,3.215-0.549,4.437-1.492c0.124-0.084,0.296-0.084,0.401,0.038c0.103,0.11,0.061,0.278-0.067,0.38
			c-1.322,0.986-2.962,1.619-4.771,1.619c-4.206-0.021-7.631-3.366-7.631-7.481C54.232,81.814,57.657,78.45,61.863,78.45z"/>
		<path fill="#5E5E5E" stroke="#5E5E5E" stroke-width="0.8" stroke-miterlimit="10" d="M77.198,78.45c3.973,0,7.147,3.386,7.19,7.59
			c-0.043,4.223-3.218,7.607-7.19,7.607c-3.972,0-7.147-3.385-7.168-7.607C70.051,81.836,73.227,78.45,77.198,78.45z M77.198,93.082
			c3.595-0.038,6.581-3.151,6.6-7.042c-0.019-3.912-3.005-7.045-6.6-7.045c-3.615,0-6.603,3.133-6.603,7.045
			C70.596,89.931,73.583,93.044,77.198,93.082z"/>
		<path fill="#5E5E5E" stroke="#5E5E5E" stroke-width="0.8" stroke-miterlimit="10" d="M87.656,78.937
			c0-0.171,0.106-0.272,0.274-0.272c0.127,0,0.252,0.102,0.252,0.272v14.165c0,0.171-0.125,0.273-0.252,0.273
			c-0.168,0-0.274-0.103-0.274-0.273V78.937z"/>
		<path fill="#5E5E5E" stroke="#5E5E5E" stroke-width="0.8" stroke-miterlimit="10" d="M105.702,79.729l-5.362,7.469
			c-0.062,0.06-0.146,0.103-0.23,0.103h-0.042c-0.105,0-0.191-0.043-0.232-0.103l-5.383-7.488v13.392
			c0,0.152-0.104,0.273-0.25,0.273c-0.147,0-0.276-0.121-0.276-0.273V78.955c0-0.129,0.129-0.271,0.276-0.271
			c0.019,0,0.04,0,0.064,0.02c0.062,0,0.127,0.04,0.186,0.082l5.635,7.821l5.637-7.821c0.039-0.042,0.105-0.082,0.164-0.082
			c0.021-0.02,0.046-0.02,0.064-0.02c0.168,0,0.272,0.143,0.272,0.271v14.146c0,0.152-0.104,0.273-0.272,0.273
			c-0.123,0-0.25-0.121-0.25-0.273V79.729z"/>
		<path fill="#5E5E5E" stroke="#5E5E5E" stroke-width="0.8" stroke-miterlimit="10" d="M111.681,78.937
			c0-0.151,0.104-0.272,0.274-0.272h0.039h3.326c1.951,0,3.551,1.595,3.551,3.526c0,1.347-0.734,2.48-1.828,3.092
			c1.891,0.359,3.319,2.019,3.319,3.993c0,2.271-1.808,4.1-4.075,4.1h-4.293h-0.039c-0.171,0-0.274-0.121-0.274-0.273V78.937z
			 M115.32,85.18c1.658,0,2.987-1.326,3.006-2.989c-0.019-1.639-1.348-2.962-3.006-3.006h-3.111v5.995H115.32z M116.287,92.85
			c1.975,0,3.532-1.596,3.532-3.574c0-1.937-1.558-3.531-3.532-3.531h-4.078v7.105H116.287z"/>
		<path fill="#5E5E5E" stroke="#5E5E5E" stroke-width="0.8" stroke-miterlimit="10" d="M131.767,90.199
			c0-1.025-0.462-1.744-1.05-2.266c-0.57-0.506-1.411-1.095-3.724-1.095h-2.585v6.263c0,0.152-0.103,0.273-0.252,0.273
			c-0.147,0-0.272-0.121-0.272-0.273V78.937c0-0.151,0.125-0.272,0.272-0.272h0.019h0.022h4.269c2.251,0,4.098,1.828,4.098,4.094
			c0,1.873-1.24,3.431-2.941,3.912c0.252,0.106,0.506,0.229,0.758,0.378c0.925,0.525,1.911,1.535,1.911,3.151
			c0,1.198,0.166,1.853,0.316,2.15c0.147,0.271,0.272,0.252,0.335,0.252c0.17-0.02,0.317,0.081,0.337,0.209
			c0.043,0.271-0.189,0.335-0.36,0.335c-0.206,0-0.541-0.146-0.755-0.563C131.917,92.158,131.767,91.464,131.767,90.199z
			 M128.466,86.294h0.042c1.932-0.02,3.511-1.556,3.511-3.536c0-1.974-1.6-3.573-3.553-3.573h-4.058v7.109H128.466z"/>
		<path fill="#5E5E5E" stroke="#5E5E5E" stroke-width="0.8" stroke-miterlimit="10" d="M145.584,89.379h-7.356l-1.408,3.767
			c-0.023,0.108-0.123,0.189-0.229,0.189c-0.021,0-0.064-0.022-0.107-0.022c-0.127-0.059-0.189-0.211-0.127-0.36l5.3-14.126
			c0.043-0.123,0.147-0.186,0.274-0.162c0.102,0,0.208,0.059,0.271,0.162l5.298,14.126c0.066,0.149-0.021,0.302-0.146,0.36
			c-0.042,0-0.065,0.022-0.084,0.022c-0.107,0-0.21-0.081-0.274-0.189L145.584,89.379z M138.438,88.838h6.938l-3.472-9.211
			L138.438,88.838z"/>
		<path fill="#5E5E5E" d="M117.719,39.341V28.039v-9.656c0,0-17.876-10.534-45.484-10.405C58.885,8.041,48,11.415,40.205,14.932
			c-3.92,1.545-7.715,3.682-11.553,6.533c-1.24,0.89-1.896,1.442-1.896,1.442s0.012-0.005,0.016-0.005
			c-1.698,1.363-3.411,2.868-5.154,4.547C9.816,38.713,4.405,54.266,4.405,72.894c0,16.611,4.435,30.431,12.97,41.544l-0.078-0.046
			c0,0,0.832,1.13,2.385,2.847c0.297,0.344,0.557,0.711,0.861,1.047c2.844,3.116,5.971,5.787,9.332,8.069
			c8.528,6.212,21.266,12.52,37.915,12.52c32.811,0,49.014-17.688,49.014-17.688s-0.05,0.017-0.062,0.022
			c1.316-1.245,2.596-2.545,3.804-3.947l-7.413-9.656c-0.682-0.73-1.707-1.071-2.729-1.071c-1.075,0-1.758,0.539-2.779,1.414
			c-1.414,1.317-2.924,2.438-4.486,3.512l4.437,5.802c-7.852,9.16-18.033,14.879-30.417,17.274
			c-2.431,0.377-4.935,0.574-7.366,0.523c-3.686-0.079-10.277-1.197-15.668-2.867c-7.919-2.904-14.839-7.533-20.609-13.907
			c-10.68-11.703-16.189-26.817-16.189-45.392c0-18.627,5.461-34.18,17.213-45.444c2.426-2.336,4.968-4.273,7.562-6.005
			c23.018-12.314,45.908-7.303,45.842-2.851c-0.062,4.167-0.024,5.858-0.024,5.858s0.068-0.005,0.078-0.005
			c0.381,0.102,6.097,1.667,8.171,2.516c0.584,0.245,6.469,2.369,9.153,3.783C108.927,32.641,117.719,39.341,117.719,39.341z"/>
		<path fill="#BCBCBC" d="M97.433,106.534c-1.021,0-1.706,0.539-2.729,1.414c-4.486,4.097-9.652,6.878-15.163,8.923
			c-1.703,0.583-3.707,1.074-6.097,1.414c-9.017-1.366-16.623-5.316-22.863-12.094c-8.242-8.922-11.51-18.527-11.51-33.298
			c0-14.824,4.293-26.719,12.531-35.642c6.877-7.268,15.456-11.457,25.742-12.677c-16.283-1.659-29.105,2.582-38.66,12.677
			c-8.242,8.923-12.58,20.818-12.58,35.642c0,14.771,3.313,24.376,11.553,33.298c7.898,8.635,18.041,12.777,30.428,12.777
			c1.754,0,3.361-0.048,4.874-0.146c1.022,0.099,2.145,0.146,3.22,0.146c7.215,0,12.527-0.731,16.329-2.098
			c3.757-1.413,7.315-3.12,10.631-5.411l-2.924-3.854C99.529,106.875,98.508,106.534,97.433,106.534z"/>
	</g>
</g>
<g id="Layer_2">
</g>
</svg>
