<?xml version="1.0" standalone="no"?>
<!DOCTYPE svg PUBLIC "-//W3C//DTD SVG 20010904//EN"
 "http://www.w3.org/TR/2001/REC-SVG-20010904/DTD/svg10.dtd">
<svg version="1.0" xmlns="http://www.w3.org/2000/svg"
 width="572.000000pt" height="572.000000pt" viewBox="0 0 572.000000 572.000000"
 preserveAspectRatio="xMidYMid meet">
<metadata>
Created by potrace 1.11, written by Peter Selinger 2001-2013
</metadata>
<g transform="translate(0.000000,572.000000) scale(0.100000,-0.100000)"
fill="#000000" stroke="none">
<path d="M2997 5374 c-1 -1 -51 -4 -112 -8 -60 -3 -146 -11 -190 -17 -44 -6
-96 -13 -115 -15 -38 -5 -51 -8 -90 -17 -14 -3 -52 -11 -85 -17 -93 -18 -309
-84 -420 -129 -102 -41 -327 -161 -424 -225 -385 -258 -694 -626 -875 -1041
-58 -133 -97 -233 -101 -255 -1 -3 -9 -32 -19 -65 -10 -33 -19 -67 -21 -75 -2
-8 -11 -44 -20 -79 -9 -35 -18 -76 -20 -90 -2 -14 -6 -37 -9 -51 -9 -38 -15
-79 -22 -139 -3 -30 -8 -64 -10 -75 -21 -108 -22 -601 0 -751 2 -16 7 -55 10
-86 4 -31 9 -67 11 -80 3 -13 7 -37 10 -54 2 -16 9 -55 15 -85 7 -30 16 -73
20 -95 15 -70 80 -277 117 -370 54 -137 191 -403 233 -452 5 -7 10 -16 10 -22
0 -5 4 -11 8 -13 5 -1 27 -30 49 -63 23 -33 52 -72 65 -87 13 -14 39 -46 58
-70 43 -55 219 -230 285 -285 279 -230 664 -412 994 -468 19 -3 37 -7 40 -9 6
-4 75 -14 136 -21 17 -2 50 -6 75 -10 86 -11 206 -16 365 -15 253 2 359 2 530
0 190 -3 375 7 475 25 14 2 45 7 70 10 25 4 65 11 90 17 25 5 56 12 70 14 65
10 388 113 396 126 3 4 14 8 25 8 10 0 19 5 19 12 0 6 3 9 6 5 16 -16 361 188
460 272 17 14 46 39 65 55 104 88 229 219 229 240 0 8 -8 23 -18 33 -11 10
-59 63 -108 118 -168 189 -169 189 -242 194 -45 3 -85 -15 -139 -62 -43 -39
-69 -60 -98 -81 -14 -11 -38 -30 -53 -43 -44 -37 -37 -41 -146 80 -76 83 -114
107 -173 107 -36 0 -95 -27 -118 -53 -49 -57 -257 -200 -390 -269 -81 -42
-274 -126 -293 -128 -4 0 -23 -5 -42 -10 -19 -5 -50 -12 -69 -15 -19 -3 -38
-8 -42 -11 -8 -5 -104 -15 -154 -17 -41 -1 -99 9 -205 33 -49 12 -93 22 -97
22 -5 0 -17 5 -28 11 -11 6 -27 12 -36 14 -32 5 -188 75 -262 117 -202 115
-356 254 -537 483 -23 29 -119 184 -147 238 -90 173 -185 464 -208 640 -3 17
-7 47 -10 67 -8 47 -13 96 -21 228 -11 168 -8 277 11 510 6 73 37 237 67 350
10 41 20 80 21 85 2 6 5 15 8 20 3 6 12 31 19 58 7 26 17 50 21 53 5 3 9 16 9
30 0 13 5 24 10 24 6 0 10 6 10 14 0 37 160 317 229 402 14 18 42 51 61 75 63
77 195 204 260 249 19 14 37 28 40 31 26 29 276 172 336 192 11 4 37 13 59 22
105 41 218 72 345 94 76 14 178 7 294 -19 22 -5 57 -12 76 -15 126 -21 398
-95 465 -126 62 -29 61 -27 80 -192 10 -86 42 -153 83 -179 35 -22 48 -23 240
-26 l202 -3 0 196 c0 107 4 195 8 195 17 0 52 -42 53 -63 0 -12 2 -31 4 -42 1
-11 6 -42 9 -69 12 -99 37 -156 80 -185 39 -26 41 -26 240 -26 l201 0 3 418
c2 400 1 417 -16 417 -10 0 -22 3 -26 7 -3 4 -12 8 -19 10 -7 1 -43 14 -82 28
-76 28 -271 94 -295 100 -8 2 -53 15 -100 30 -71 21 -286 79 -340 90 -8 2 -15
4 -15 5 0 2 -15 5 -60 13 -16 3 -41 8 -55 11 -38 9 -249 44 -300 50 -144 17
-192 19 -355 16 -235 -4 -330 -4 -503 1 -79 3 -144 4 -145 3z"/>
</g>
</svg>
