<?xml version="1.0" encoding="utf-8"?>
<!-- Generator: Adobe Illustrator 16.0.0, SVG Export Plug-In . SVG Version: 6.00 Build 0)  -->
<!DOCTYPE svg PUBLIC "-//W3C//DTD SVG 1.1//EN" "http://www.w3.org/Graphics/SVG/1.1/DTD/svg11.dtd">
<svg version="1.1" id="Layer_1" xmlns="http://www.w3.org/2000/svg" xmlns:xlink="http://www.w3.org/1999/xlink" x="0px" y="0px"
	 width="160.548px" height="127.581px" viewBox="0 0 160.548 127.581" enable-background="new 0 0 160.548 127.581"
	 xml:space="preserve">
<g>
	<polygon fill="#FFFFFF" points="128.805,46.309 128.805,9.088 107.894,9.088 107.894,27.927 81.139,2.121 9.459,71.259 0,80.875 
		24.349,80.875 24.349,121.896 146.871,121.896 146.871,80.875 160.549,80.875 	"/>
	<path fill-rule="evenodd" clip-rule="evenodd" fill="#EE3646" stroke="#EE3646" stroke-miterlimit="10" d="M77.201,84.984
		c-0.368,0-0.679,0-1.061,0c0,0.322,0,0.635,0,0.947c0.001,11.033,0.004,22.068-0.001,33.102c0,0.492-0.029,0.99-0.117,1.473
		c-0.104,0.572-0.455,0.988-1.017,1.195c-0.671,0.246-1.351,0.266-2.023,0.025c-0.799-0.285-1.191-0.977-1.193-2.104
		c-0.004-2.881,0-5.764,0-8.646c-0.001-3.818-0.002-7.637-0.002-11.457c0-0.121,0-0.242,0-0.404c-0.744,0-1.455,0-2.225,0
		c0,0.217,0,0.422,0,0.629c0.001,6.402,0.002,12.803,0.004,19.203c0,0.266,0,0.531-0.009,0.797
		c-0.044,1.418-0.769,2.145-2.135,2.145c-1.44-0.002-2.185-0.695-2.2-2.129c-0.024-2.229-0.011-4.455-0.012-6.684
		c0-9.16,0.001-18.318,0.001-27.479c0-0.191,0-0.383,0-0.607c-0.355,0-0.665,0-1.06,0c0,0.268-0.001,0.543,0,0.818
		c0,3.961,0.001,7.92,0.004,11.881c0,0.584-0.081,1.137-0.577,1.525c-0.555,0.432-1.16,0.484-1.794,0.193
		c-0.635-0.289-0.912-0.818-0.919-1.486c-0.015-1.309-0.005-2.617-0.005-3.926c-0.001-3.148,0.002-6.295-0.003-9.441
		c-0.004-2.268,1.028-3.871,3.133-4.684c0.739-0.285,1.581-0.408,2.378-0.418c3.059-0.039,6.118-0.049,9.176,0.023
		c2.912,0.068,4.906,2.092,4.936,5.012c0.045,4.438,0.015,8.875,0.005,13.314c-0.001,0.275-0.064,0.562-0.156,0.826
		c-0.237,0.676-0.915,1.135-1.584,1.107c-0.619-0.025-1.231-0.504-1.414-1.176c-0.096-0.352-0.128-0.73-0.128-1.098
		c-0.008-3.873-0.004-7.744-0.002-11.617C77.201,85.566,77.201,85.289,77.201,84.984z"/>
	<path fill-rule="evenodd" clip-rule="evenodd" fill="#EE3646" stroke="#EE3646" stroke-miterlimit="10" d="M74.974,73.648
		c-0.011,2.48-1.966,4.484-4.396,4.504c-2.438,0.02-4.524-2.068-4.518-4.525c0.006-2.465,2.088-4.525,4.537-4.494
		C73.038,69.166,74.983,71.171,74.974,73.648z"/>
	<path fill-rule="evenodd" clip-rule="evenodd" fill="#EE3646" stroke="#EE3646" stroke-miterlimit="10" d="M89.979,84.984
		c-0.368,0-0.679,0-1.061,0c0,0.322,0,0.635,0,0.947c0.001,11.033,0.004,22.068-0.001,33.102c0,0.492-0.029,0.99-0.117,1.473
		c-0.104,0.572-0.455,0.988-1.017,1.195c-0.671,0.246-1.351,0.266-2.023,0.025c-0.799-0.285-1.191-0.977-1.193-2.104
		c-0.004-2.881,0-5.764,0-8.646c-0.001-3.818-0.002-7.637-0.002-11.457c0-0.121,0-0.242,0-0.404c-0.744,0-1.455,0-2.225,0
		c0,0.217,0,0.422,0,0.629c0.001,6.402,0.002,12.803,0.004,19.203c0,0.266,0,0.531-0.009,0.797
		c-0.044,1.418-0.769,2.145-2.135,2.145c-1.44-0.002-2.185-0.695-2.2-2.129c-0.024-2.229-0.011-4.455-0.012-6.684
		c0-9.16,0.001-18.318,0.001-27.479c0-0.191,0-0.383,0-0.607c-0.355,0-0.665,0-1.06,0c0,0.268-0.001,0.543,0,0.818
		c0,3.961,0.001,7.92,0.004,11.881c0,0.584-0.081,1.137-0.577,1.525c-0.555,0.432-1.16,0.484-1.794,0.193
		c-0.635-0.289-0.912-0.818-0.919-1.486c-0.015-1.309-0.005-2.617-0.005-3.926c-0.001-3.148,0.002-6.295-0.003-9.441
		c-0.004-2.268,1.028-3.871,3.133-4.684c0.739-0.285,1.581-0.408,2.378-0.418c3.059-0.039,6.118-0.049,9.176,0.023
		c2.912,0.068,4.906,2.092,4.936,5.012c0.045,4.438,0.015,8.875,0.005,13.314c-0.001,0.275-0.064,0.562-0.156,0.826
		c-0.237,0.676-0.915,1.135-1.584,1.107c-0.619-0.025-1.231-0.504-1.414-1.176c-0.096-0.352-0.128-0.73-0.128-1.098
		c-0.008-3.873-0.004-7.744-0.002-11.617C89.979,85.566,89.979,85.289,89.979,84.984z"/>
	<path fill-rule="evenodd" clip-rule="evenodd" fill="#EE3646" stroke="#EE3646" stroke-miterlimit="10" d="M87.751,73.648
		c-0.011,2.48-1.966,4.484-4.396,4.504c-2.438,0.02-4.524-2.068-4.518-4.525c0.006-2.465,2.088-4.525,4.537-4.494
		C85.815,69.166,87.761,71.171,87.751,73.648z"/>
	<path fill-rule="evenodd" clip-rule="evenodd" fill="#EE3646" stroke="#EE3646" stroke-miterlimit="10" d="M102.754,84.984
		c-0.368,0-0.679,0-1.061,0c0,0.322,0,0.635,0,0.947c0.001,11.033,0.004,22.068-0.001,33.102c0,0.492-0.029,0.99-0.117,1.473
		c-0.104,0.572-0.455,0.988-1.017,1.195c-0.671,0.246-1.351,0.266-2.023,0.025c-0.799-0.285-1.191-0.977-1.193-2.104
		c-0.004-2.881,0-5.764,0-8.646c-0.001-3.818-0.002-7.637-0.002-11.457c0-0.121,0-0.242,0-0.404c-0.744,0-1.455,0-2.225,0
		c0,0.217,0,0.422,0,0.629c0.001,6.402,0.002,12.803,0.004,19.203c0,0.266,0,0.531-0.009,0.797
		c-0.044,1.418-0.769,2.145-2.135,2.145c-1.44-0.002-2.185-0.695-2.2-2.129c-0.024-2.229-0.011-4.455-0.012-6.684
		c0-9.16,0.001-18.318,0.001-27.479c0-0.191,0-0.383,0-0.607c-0.355,0-0.665,0-1.06,0c0,0.268-0.001,0.543,0,0.818
		c0,3.961,0.001,7.92,0.004,11.881c0,0.584-0.081,1.137-0.577,1.525c-0.555,0.432-1.16,0.484-1.794,0.193
		c-0.635-0.289-0.912-0.818-0.919-1.486c-0.015-1.309-0.005-2.617-0.005-3.926c-0.001-3.148,0.002-6.295-0.003-9.441
		c-0.004-2.268,1.028-3.871,3.133-4.684c0.739-0.285,1.581-0.408,2.378-0.418c3.059-0.039,6.118-0.049,9.176,0.023
		c2.912,0.068,4.906,2.092,4.936,5.012c0.045,4.438,0.015,8.875,0.005,13.314c-0.001,0.275-0.064,0.562-0.156,0.826
		c-0.237,0.676-0.915,1.135-1.584,1.107c-0.619-0.025-1.231-0.504-1.414-1.176c-0.096-0.352-0.128-0.73-0.128-1.098
		c-0.008-3.873-0.004-7.744-0.002-11.617C102.754,85.566,102.754,85.289,102.754,84.984z"/>
	<path fill-rule="evenodd" clip-rule="evenodd" fill="#EE3646" stroke="#EE3646" stroke-miterlimit="10" d="M100.526,73.648
		c-0.011,2.48-1.966,4.484-4.396,4.504c-2.438,0.02-4.524-2.068-4.518-4.525c0.006-2.465,2.088-4.525,4.537-4.494
		C98.591,69.166,100.536,71.171,100.526,73.648z"/>
</g>
</svg>
