<svg width="180" height="150" xmlns="http://www.w3.org/2000/svg">

 <g>
  <title>background</title>
  <rect fill="none" id="canvas_background" height="152" width="182" y="-1" x="-1"/>
 </g>
 <g>
  <title>Layer 1</title>
  <g id="Layer_1"/>
  <g id="Layer_4"/>
  <g id="Layer_2">
   <g id="svg_1">
    <polygon id="svg_2" points="35.30548858642578,65.4745101928711 89.99748992919922,10.781501770019531 168.13650512695312,89.89350128173828 154.46051025390625,89.89350128173828 154.46051025390625,130.91449737548828 105.6264877319336,130.91449737548828 105.6264877319336,92.82450103759766 96.83748626708984,92.82450103759766 " fill="#FFFFFF"/>
    <polygon id="svg_3" points="115.96248626708984,37.066505432128906 115.96248626708984,18.107505798339844 136.39151000976562,18.107505798339844 136.39151000976562,57.75450897216797 " fill="#FFFFFF"/>
    <polygon id="svg_4" points="47.39550018310547,70.8475112915039 89.99748992919922,28.94049835205078 154.46051025390625,89.89350128173828 168.13650512695312,89.89350128173828 89.99748992919922,10.781501770019531 33.350486755371094,65.48050689697266 " fill="#FFFFFF"/>
    <g id="svg_5">
     <path id="svg_6" d="m100.741495,94.775503c0,24.545 -19.895,44.443 -44.439,44.443s-44.439,-19.898 -44.439,-44.443c0,-24.539 19.895,-44.438 44.439,-44.438s44.439,19.899 44.439,44.438z" fill="#FFFFFF"/>
     <polyline id="svg_7" points="37.345497131347656,89.79749298095703 51.99551010131836,111.77149200439453 78.85448455810547,70.25849151611328 " stroke-miterlimit="10" stroke-width="5" stroke="#EE3646" fill="none"/>
    </g>
   </g>
  </g>
  <g id="Layer_3"/>
 </g>
</svg>