<svg width="100" height="150" xmlns="http://www.w3.org/2000/svg" xmlns:xlink="http://www.w3.org/1999/xlink">
 <g>
  <title>background</title>
  <rect fill="none" id="canvas_background" height="152" width="102" y="-1" x="-1"/>
 </g>
 <g>
  <title>Layer 1</title>
  <g id="Layer_1"/>
  <g id="Layer_4"/>
  <g id="Layer_2">
   <g id="svg_1">
    <g id="svg_2">
     <path id="svg_3" d="m27.416324,110.307997l43.264,0l0,14.139c0,0 -10.461,9.896 -19.51,9.614s-23.754,-9.896 -23.754,-9.896l0,-13.857z" stroke-miterlimit="10" stroke="#FFFFFF" fill="#FFFFFF"/>
     <path id="svg_4" d="m27.416324,110.307997c0,0 16.344,5.91 26.884,8.52c10.542,2.608 16.38,5.619 16.38,5.619" stroke-miterlimit="10" stroke="#EE3646" fill="none"/>
     <g id="svg_5">
      <defs transform="translate(0,-0.000003814697265625) translate(0,-0.000003814697265625) translate(0,-1.191995620727539) translate(0.951324462890625,0) translate(-8,-3) translate(-26,-15) translate(-219,-151) ">
       <path d="m279.465,280.5l43.264,0l0,14.139c0,0 -10.461,9.896 -19.51,9.614s-23.754,-9.896 -23.754,-9.896l0,-13.857z" id="SVGID_19_"/>
      </defs>
      <clipPath transform="translate(0,-0.000003814697265625) translate(0,-0.000003814697265625) translate(0,-1.191995620727539) translate(0.951324462890625,0) translate(-8,-3) translate(-26,-15) translate(-219,-151) " id="SVGID_2_">
       <use x="-252.048676" y="-170.192003" id="svg_6" xlink:href="#SVGID_19_"/>
      </clipPath>
      <path id="svg_7" d="m30.170324,106.624997c0,0 16.343,5.91 26.884,8.519c10.541,2.609 16.38,5.62 16.38,5.62" stroke-miterlimit="10" stroke="#EE3646" fill="none" clip-path="url(#SVGID_2_)"/>
      <path id="svg_8" d="m33.890324,103.236997c0,0 16.343,5.911 26.884,8.52c10.541,2.609 16.38,5.619 16.38,5.619" stroke-miterlimit="10" stroke="#EE3646" fill="none" clip-path="url(#SVGID_2_)"/>
      <path id="svg_9" d="m27.416324,115.117997c0,0 16.344,5.91 26.884,8.519c10.542,2.609 16.38,5.62 16.38,5.62" stroke-miterlimit="10" stroke="#EE3646" fill="none" clip-path="url(#SVGID_2_)"/>
      <path id="svg_10" d="m26.349324,119.926997c0,0 16.343,5.91 26.885,8.52c10.54,2.609 16.38,5.62 16.38,5.62" stroke-miterlimit="10" stroke="#EE3646" fill="none" clip-path="url(#SVGID_2_)"/>
      <path id="svg_11" d="m25.283324,124.736997c0,0 16.342,5.909 26.884,8.519s16.38,5.62 16.38,5.62" stroke-miterlimit="10" stroke="#EE3646" fill="none" clip-path="url(#SVGID_2_)"/>
     </g>
    </g>
    <g id="svg_12">
     <path id="svg_13" d="m87.931324,48.070997c0.004,-0.235 0.019,-0.469 0.019,-0.705c0,-20.017 -16.989,-36.242 -37.95,-36.242s-37.951,16.226 -37.951,36.242c0,0.139 0.009,0.273 0.012,0.412c0,0.247 0.007,0.491 0.02,0.736c0.114,3.527 0.754,6.928 1.854,10.131c3.141,11.968 8.969,23.693 11.221,29.322c2.827,7.07 2.262,14.704 2.262,14.704c0.85,0 43.264,0 43.264,0s2.828,-12.724 9.615,-24.035c3.894,-6.495 7.969,-18.771 7.634,-30.565z" fill="#FFFFFF"/>
     <line id="svg_14" y2="41.273997" x2="27.416324" y1="90.722997" x1="36.736324" stroke-miterlimit="10" stroke="#EE3646" fill="none"/>
     <line id="svg_15" y2="91.077997" x2="62.707324" y1="39.849997" x1="70.680324" stroke-miterlimit="10" stroke="#EE3646" fill="none"/>
     <path id="svg_16" d="m27.568324,45.177997c0,0 1.27,0 5.078,-2.03c3.807,-2.031 7.362,-5.077 10.154,-4.062c2.793,1.016 3.301,2.793 4.824,4.57c1.521,1.776 4.823,2.906 6.346,2.723c1.523,-0.184 6.855,-5.262 6.855,-5.262s0.995,-4.062 2.909,-4.062c1.913,0 2.93,4.012 2.421,4.672c-0.508,0.66 -4.315,2.691 -4.315,2.691s2.291,-0.255 4.446,-0.508c2.154,-0.254 3.932,-2.184 3.932,-2.184l1.27,1.168" fill="#EE3646"/>
    </g>
   </g>
  </g>
  <g id="Layer_3"/>
 </g>
</svg>