<?xml version="1.0" encoding="utf-8"?>
<!-- Generator: Adobe Illustrator 16.0.0, SVG Export Plug-In . SVG Version: 6.00 Build 0)  -->
<!DOCTYPE svg PUBLIC "-//W3C//DTD SVG 1.1//EN" "http://www.w3.org/Graphics/SVG/1.1/DTD/svg11.dtd">
<svg version="1.1" xmlns="http://www.w3.org/2000/svg" xmlns:xlink="http://www.w3.org/1999/xlink" x="0px" y="0px"
	 width="105.268px" height="102.667px" viewBox="0 0 105.268 102.667" enable-background="new 0 0 105.268 102.667"
	 xml:space="preserve">
<g id="Layer_1">
</g>
<g id="Layer_2">
	<g>
		<g>
			<path fill="#E82325" stroke="#E82325" stroke-width="0.8" stroke-miterlimit="10" d="M47.751,43.061
				c1.112,0,2.146,0.389,2.932,0.995c0.078,0.066,0.105,0.17,0.054,0.234c-0.076,0.076-0.183,0.091-0.245,0.023
				c-0.749-0.579-1.693-0.914-2.74-0.914c-2.389,0-4.354,1.897-4.354,4.234c0,2.365,1.965,4.264,4.354,4.264
				c1.035,0,1.977-0.335,2.727-0.915c0.076-0.054,0.183-0.054,0.248,0.024c0.062,0.062,0.035,0.168-0.043,0.232
				c-0.812,0.607-1.819,0.995-2.932,0.995c-2.584-0.012-4.688-2.067-4.688-4.601C43.063,45.13,45.167,43.061,47.751,43.061z"/>
			<path fill="#E82325" stroke="#E82325" stroke-width="0.8" stroke-miterlimit="10" d="M58.312,49.778h-4.522l-0.866,2.316
				c-0.011,0.062-0.074,0.117-0.14,0.117c-0.013,0-0.039-0.02-0.065-0.02c-0.078-0.035-0.117-0.124-0.078-0.217l3.258-8.682
				c0.025-0.077,0.089-0.116,0.166-0.104c0.063,0,0.129,0.037,0.168,0.104l3.254,8.682c0.041,0.093-0.012,0.182-0.09,0.217
				c-0.023,0-0.039,0.02-0.051,0.02c-0.064,0-0.129-0.055-0.167-0.117L58.312,49.778z M53.919,49.446h4.264l-2.133-5.662
				L53.919,49.446z"/>
			<path fill="#E82325" stroke="#E82325" stroke-width="0.8" stroke-miterlimit="10" d="M60.874,50.995
				c-0.065-0.066-0.078-0.168-0.012-0.234c0.062-0.062,0.168-0.074,0.232-0.012c0.012,0.012,1.369,1.227,3.138,1.227
				c1.745,0,3.103-0.98,3.103-2.233c0-1.437-1.383-1.759-2.842-2.097c-1.5-0.347-3.049-0.709-3.049-2.363
				c0-1.172,1.252-2.141,2.801-2.141c1.784,0,2.715,1.044,2.752,1.097c0.066,0.063,0.054,0.167-0.012,0.23
				c-0.079,0.054-0.183,0.054-0.234-0.012c-0.012-0.013-0.877-0.983-2.506-0.983c-1.354,0-2.467,0.816-2.467,1.809
				c0,1.383,1.357,1.709,2.791,2.043c1.525,0.35,3.088,0.708,3.088,2.417c0,1.433-1.5,2.556-3.425,2.556
				C62.336,52.298,60.925,51.046,60.874,50.995z"/>
			<path fill="#E82325" stroke="#E82325" stroke-width="0.8" stroke-miterlimit="10" d="M74.87,49.778h-4.521l-0.865,2.316
				c-0.015,0.062-0.078,0.117-0.141,0.117c-0.015,0-0.043-0.02-0.066-0.02c-0.077-0.035-0.117-0.124-0.077-0.217l3.257-8.682
				c0.027-0.077,0.088-0.116,0.167-0.104c0.063,0,0.128,0.037,0.167,0.104l3.255,8.682c0.04,0.093-0.012,0.182-0.09,0.217
				c-0.025,0-0.04,0.02-0.051,0.02c-0.066,0-0.132-0.055-0.167-0.117L74.87,49.778z M70.478,49.446h4.264l-2.133-5.662
				L70.478,49.446z"/>
			<path fill="#E82325" stroke="#E82325" stroke-width="0.8" stroke-miterlimit="10" d="M77.433,50.995
				c-0.066-0.066-0.078-0.168-0.013-0.234c0.063-0.062,0.167-0.074,0.233-0.012c0.012,0.012,1.367,1.227,3.139,1.227
				c1.742,0,3.1-0.98,3.1-2.233c0-1.437-1.383-1.759-2.84-2.097C79.551,47.299,78,46.937,78,45.282c0-1.172,1.255-2.141,2.804-2.141
				c1.783,0,2.713,1.044,2.751,1.097c0.066,0.063,0.052,0.167-0.01,0.23c-0.078,0.054-0.183,0.054-0.234-0.012
				c-0.013-0.013-0.878-0.983-2.507-0.983c-1.354,0-2.466,0.816-2.466,1.809c0,1.383,1.354,1.709,2.788,2.043
				c1.523,0.35,3.09,0.708,3.09,2.417c0,1.433-1.5,2.556-3.424,2.556C78.894,52.298,77.483,51.046,77.433,50.995z"/>
			<path fill="#E82325" stroke="#E82325" stroke-width="0.8" stroke-miterlimit="10" d="M47.751,58.574
				c1.112,0,2.146,0.389,2.932,0.995c0.078,0.062,0.105,0.168,0.054,0.232c-0.076,0.074-0.183,0.09-0.245,0.027
				c-0.749-0.582-1.693-0.92-2.74-0.92c-2.389,0-4.354,1.9-4.354,4.238c0,2.363,1.965,4.264,4.354,4.264
				c1.035,0,1.977-0.338,2.727-0.918c0.076-0.051,0.183-0.051,0.248,0.023c0.062,0.068,0.035,0.171-0.043,0.234
				c-0.812,0.605-1.819,0.994-2.932,0.994c-2.584-0.013-4.688-2.068-4.688-4.598C43.063,60.642,45.167,58.574,47.751,58.574z"/>
			<path fill="#E82325" stroke="#E82325" stroke-width="0.8" stroke-miterlimit="10" d="M57.175,58.574
				c2.441,0,4.392,2.08,4.418,4.664c-0.026,2.595-1.977,4.675-4.418,4.675s-4.392-2.08-4.404-4.675
				C52.783,60.654,54.733,58.574,57.175,58.574z M57.175,67.565c2.209-0.023,4.044-1.937,4.056-4.327
				c-0.012-2.404-1.847-4.329-4.056-4.329c-2.222,0-4.057,1.925-4.057,4.329C53.118,65.629,54.953,67.542,57.175,67.565z"/>
			<path fill="#E82325" stroke="#E82325" stroke-width="0.8" stroke-miterlimit="10" d="M63.601,58.872
				c0-0.104,0.066-0.166,0.17-0.166c0.077,0,0.154,0.062,0.154,0.166v8.705c0,0.105-0.077,0.168-0.154,0.168
				c-0.104,0-0.17-0.062-0.17-0.168V58.872z"/>
			<path fill="#E82325" stroke="#E82325" stroke-width="0.8" stroke-miterlimit="10" d="M74.69,59.36l-3.295,4.589
				c-0.039,0.037-0.09,0.063-0.143,0.063h-0.025c-0.064,0-0.117-0.026-0.143-0.063l-3.309-4.601v8.229
				c0,0.094-0.063,0.168-0.152,0.168c-0.092,0-0.171-0.074-0.171-0.168v-8.693c0-0.078,0.079-0.166,0.171-0.166
				c0.011,0,0.023,0,0.039,0.012c0.038,0,0.078,0.024,0.113,0.051l3.463,4.806l3.463-4.806c0.025-0.026,0.066-0.051,0.102-0.051
				c0.013-0.012,0.028-0.012,0.039-0.012c0.104,0,0.168,0.088,0.168,0.166v8.693c0,0.094-0.064,0.168-0.168,0.168
				c-0.074,0-0.152-0.074-0.152-0.168V59.36z"/>
			<path fill="#E82325" stroke="#E82325" stroke-width="0.8" stroke-miterlimit="10" d="M78.363,58.872
				c0-0.092,0.063-0.166,0.169-0.166h0.023h2.045c1.198,0,2.182,0.979,2.182,2.166c0,0.828-0.451,1.524-1.124,1.9
				c1.161,0.221,2.04,1.24,2.04,2.453c0,1.396-1.111,2.52-2.504,2.52h-2.639h-0.023c-0.105,0-0.169-0.074-0.169-0.168V58.872z
				 M80.601,62.709c1.018,0,1.834-0.815,1.846-1.837c-0.012-1.007-0.828-1.82-1.846-1.847h-1.912v3.684H80.601z M81.194,67.422
				c1.213,0,2.17-0.979,2.17-2.196c0-1.189-0.957-2.17-2.17-2.17h-2.506v4.366H81.194z"/>
			<path fill="#E82325" stroke="#E82325" stroke-width="0.8" stroke-miterlimit="10" d="M90.706,65.794
				c0-0.631-0.284-1.072-0.646-1.393c-0.351-0.311-0.866-0.672-2.288-0.672h-1.588v3.848c0,0.094-0.063,0.168-0.155,0.168
				c-0.091,0-0.167-0.074-0.167-0.168v-8.705c0-0.092,0.076-0.166,0.167-0.166h0.012h0.014h2.623c1.383,0,2.518,1.123,2.518,2.516
				c0,1.15-0.762,2.107-1.808,2.402c0.155,0.066,0.311,0.141,0.466,0.233c0.568,0.323,1.175,0.943,1.175,1.937
				c0,0.736,0.102,1.138,0.194,1.321c0.09,0.166,0.167,0.155,0.205,0.155c0.105-0.013,0.196,0.049,0.207,0.128
				c0.027,0.167-0.116,0.206-0.221,0.206c-0.127,0-0.332-0.09-0.464-0.347C90.798,66.997,90.706,66.571,90.706,65.794z
				 M88.678,63.394h0.025c1.188-0.012,2.157-0.955,2.157-2.172c0-1.213-0.982-2.196-2.183-2.196h-2.493v4.368H88.678z"/>
			<path fill="#E82325" stroke="#E82325" stroke-width="0.8" stroke-miterlimit="10" d="M99.196,65.29h-4.521l-0.865,2.314
				c-0.015,0.066-0.075,0.115-0.141,0.115c-0.013,0-0.04-0.014-0.066-0.014c-0.078-0.035-0.116-0.129-0.078-0.221l3.257-8.68
				c0.026-0.076,0.091-0.114,0.168-0.1c0.063,0,0.128,0.035,0.167,0.1l3.255,8.68c0.041,0.092-0.013,0.186-0.09,0.221
				c-0.025,0-0.039,0.014-0.051,0.014c-0.066,0-0.129-0.049-0.169-0.115L99.196,65.29z M94.805,64.957h4.264l-2.133-5.66
				L94.805,64.957z"/>
			<g>
				<g>
					<g>
						<path fill="#129DCB" d="M58.019,9.808c0.047,0,0.096,0.003,0.144,0.003c0.045,0,0.089-0.003,0.133-0.003H58.019z"/>
						<path fill="#96CDCD" d="M81.584,79.187c-0.477-0.474-1.19-0.711-1.907-0.711c-0.713,0-1.193,0.355-1.902,0.954
							c-3.097,2.853-6.666,4.76-10.473,6.187c-2.617,0.953-6.305,1.426-11.305,1.426c-8.57,0-15.591-2.853-21.061-8.803
							c-5.717-6.192-8.572-14.522-8.572-24.755s2.975-18.448,8.69-24.634c7.263-7.648,17.22-10.442,30.103-8.296
							c1.979,0.371,8.984,1.749,10.145,2.871c0.047,0.062,0.098,0.123,0.147,0.192c0.075,0.185,0.134,0.361,0.184,0.531
							c0.075,0.844,0.135,1.42,0.186,1.831v0.001l0,0c0.135,1.084,0.204,0.979,0.289,1.324c0.24,1.431,1.194,2.144,2.62,2.144h5.71
							v-6.907v-6.666c-10.755-4.014-19.624-6.037-26.275-6.065C45.138,9.84,34.43,14,26.601,22.069
							c-7.85,8.089-11.899,18.562-11.899,31.415c0,12.856,3.813,23.322,11.188,31.419c7.377,8.092,17.373,12.139,29.513,12.139
							c13.093,0,23.325-4.287,30.702-12.853L81.584,79.187z"/>
					</g>
				</g>
				<g>
					<g>
						<path fill="#EE3646" d="M48.224,9.808c0.047,0,0.097,0.003,0.145,0.003c0.044,0,0.088-0.003,0.133-0.003H48.224z"/>
						<path fill="#EE3646" d="M71.789,79.187c-0.477-0.474-1.189-0.711-1.907-0.711c-0.713,0-1.192,0.355-1.902,0.954
							c-3.096,2.853-6.666,4.76-10.473,6.187c-2.617,0.953-6.305,1.426-11.305,1.426c-8.569,0-15.591-2.853-21.061-8.803
							c-5.717-6.192-8.572-14.522-8.572-24.755s2.975-18.448,8.691-24.634c7.262-7.648,17.219-10.442,30.102-8.296
							c1.979,0.371,8.984,1.749,10.145,2.871c0.047,0.062,0.099,0.123,0.147,0.192c0.075,0.185,0.134,0.361,0.184,0.531
							c0.075,0.844,0.135,1.42,0.187,1.831v0.001l0,0c0.135,1.084,0.203,0.979,0.288,1.324c0.24,1.431,1.194,2.144,2.62,2.144h5.71
							v-6.907v-6.666c-10.755-4.014-19.624-6.037-26.274-6.065C35.343,9.84,24.636,14,16.806,22.069
							C8.956,30.158,4.906,40.632,4.906,53.484c0,12.856,3.813,23.322,11.188,31.419c7.377,8.092,17.373,12.139,29.513,12.139
							c13.093,0,23.325-4.287,30.702-12.853L71.789,79.187z"/>
					</g>
				</g>
				<path fill="#7D6B6E" d="M74.396,82.071c0,0-0.51,0.221-3.164,1.834c-2.652,1.615-7.762,2.693-10.925,3.076
					c-3.163,0.381-8.526-0.186-8.526-0.186l-0.002-0.006c-1.646,0.164-3.49,0.252-5.576,0.252c-8.569,0-15.591-2.853-21.061-8.803
					c-5.717-6.192-8.572-14.522-8.572-24.755s2.975-18.448,8.691-24.634c1.458-1.536,3.03-2.866,4.708-4.01
					c0.011-0.011,0.021-0.025,0.031-0.033c0.278-0.206,0.651-0.444,1.087-0.697c2.879-1.764,6.07-2.973,9.574-3.639
					c0.242-0.051,0.486-0.1,0.73-0.143c0.195-0.034,0.398-0.062,0.6-0.092c0.053-0.008,0.105-0.017,0.158-0.024
					c0.434-0.061,0.877-0.109,1.324-0.15c0.298-0.026,0.598-0.048,0.898-0.067c2.199-0.172,4.509-0.155,6.934,0.059
					c0.138,0.01,0.268,0.02,0.382,0.028c0.465,0.036,0.743,0.064,0.743,0.064s2.368-0.35,3.35-0.295
					c0.982,0.055,8.18,0.436,13.742,1.581c4.453,0.917,5.057,1.376,5.12,1.522v-0.413v-6.666c0,0-6.454-2.435-12.54-4.007
					c-5.02-1.297-8.988-1.797-9.35-1.797c-2.206,0-6.761,1.141-13.029,3.973c-5.371,2.427-13.084,7.3-16.662,11.914
					c-3.387,4.366-6.463,11.208-7.728,17.102c-0.984,4.587-0.616,13.546,0.093,19.435c0.709,5.891,3.436,12.162,6.326,16.797
					c2.89,4.635,6.762,8.779,13.742,13.033c6.738,4.107,14.551,4.475,15.082,4.494c0.082-0.007,0.161-0.018,0.242-0.025
					c0.807-0.037,3.696-0.363,6.389-1.051c1.332-0.322,2.599-0.715,3.878-1.142c1.87-0.625,3.726-1.423,5.895-2.687
					c0.913-0.521,1.839-1.027,2.655-1.688c1.598-1.098,3.121-2.305,4.441-3.662c1.323-1.359,2.232-2.375,2.232-2.376L74.396,82.071z
					"/>
			</g>
		</g>
		<path fill="#EE3646" d="M17.774,35.388c0,0,3.953-7.736,7.331-11.281c4.46-4.681,5.975-5.453,7.894-6.537
			c5.688-3.212-4.018-0.771-4.018-0.771l-12.816,9.543v5.563C16.165,31.905,17.036,36.112,17.774,35.388z"/>
	</g>
</g>
</svg>
