<?xml version="1.0" encoding="utf-8"?>
<!-- Generator: Adobe Illustrator 16.0.0, SVG Export Plug-In . SVG Version: 6.00 Build 0)  -->
<!DOCTYPE svg PUBLIC "-//W3C//DTD SVG 1.1//EN" "http://www.w3.org/Graphics/SVG/1.1/DTD/svg11.dtd">
<svg version="1.1" xmlns="http://www.w3.org/2000/svg" xmlns:xlink="http://www.w3.org/1999/xlink" x="0px" y="0px"
	 width="156.667px" height="151.333px" viewBox="0 0 156.667 151.333" enable-background="new 0 0 156.667 151.333"
	 xml:space="preserve">
<g id="Layer_1">
</g>
<g id="Layer_2">
	<g>
		<g>
			<path fill="#5E5E5E" stroke="#5E5E5E" stroke-width="0.8" stroke-miterlimit="10" d="M70.974,60.92
				c1.699,0,3.277,0.594,4.479,1.521c0.12,0.1,0.159,0.258,0.081,0.356c-0.116,0.117-0.277,0.141-0.373,0.037
				c-1.146-0.885-2.589-1.398-4.188-1.398c-3.652,0-6.654,2.9-6.654,6.47c0,3.617,3.002,6.518,6.654,6.518
				c1.58,0,3.02-0.512,4.166-1.398c0.117-0.082,0.278-0.082,0.377,0.037c0.096,0.096,0.057,0.256-0.063,0.355
				c-1.241,0.928-2.78,1.52-4.479,1.52c-3.949-0.018-7.165-3.158-7.165-7.031C63.809,64.081,67.024,60.92,70.974,60.92z"/>
			<path fill="#5E5E5E" stroke="#5E5E5E" stroke-width="0.8" stroke-miterlimit="10" d="M87.11,71.186h-6.911l-1.323,3.539
				c-0.017,0.096-0.114,0.178-0.214,0.178c-0.02,0-0.06-0.027-0.101-0.027c-0.118-0.055-0.178-0.191-0.118-0.332l4.978-13.267
				c0.039-0.118,0.137-0.178,0.254-0.158c0.098,0,0.197,0.058,0.258,0.158l4.973,13.267c0.062,0.141-0.018,0.277-0.139,0.332
				c-0.035,0-0.059,0.027-0.076,0.027c-0.1,0-0.197-0.082-0.256-0.178L87.11,71.186z M80.397,70.678h6.516l-3.258-8.652
				L80.397,70.678z"/>
			<path fill="#5E5E5E" stroke="#5E5E5E" stroke-width="0.8" stroke-miterlimit="10" d="M91.026,73.043
				c-0.1-0.1-0.119-0.254-0.018-0.355c0.096-0.096,0.256-0.115,0.355-0.018c0.018,0.018,2.092,1.873,4.795,1.873
				c2.666,0,4.74-1.5,4.74-3.414c0-2.195-2.113-2.688-4.342-3.203c-2.293-0.529-4.658-1.084-4.658-3.611
				c0-1.792,1.912-3.272,4.279-3.272c2.727,0,4.148,1.596,4.205,1.676c0.102,0.096,0.082,0.256-0.018,0.352
				c-0.121,0.082-0.279,0.082-0.357-0.018c-0.02-0.02-1.342-1.502-3.83-1.502c-2.07,0-3.77,1.247-3.77,2.764
				c0,2.113,2.074,2.611,4.266,3.123c2.33,0.533,4.717,1.08,4.717,3.691c0,2.189-2.291,3.906-5.232,3.906
				C93.261,75.036,91.104,73.124,91.026,73.043z"/>
			<path fill="#5E5E5E" stroke="#5E5E5E" stroke-width="0.8" stroke-miterlimit="10" d="M112.415,71.186h-6.91l-1.322,3.539
				c-0.021,0.096-0.119,0.178-0.215,0.178c-0.021,0-0.064-0.027-0.102-0.027c-0.117-0.055-0.178-0.191-0.117-0.332l4.977-13.267
				c0.041-0.118,0.135-0.178,0.256-0.158c0.096,0,0.195,0.058,0.254,0.158l4.975,13.267c0.062,0.141-0.018,0.277-0.137,0.332
				c-0.039,0-0.061,0.027-0.078,0.027c-0.102,0-0.201-0.082-0.256-0.178L112.415,71.186z M105.702,70.678h6.516l-3.26-8.652
				L105.702,70.678z"/>
			<path fill="#5E5E5E" stroke="#5E5E5E" stroke-width="0.8" stroke-miterlimit="10" d="M116.331,73.043
				c-0.102-0.1-0.119-0.254-0.02-0.355c0.098-0.096,0.256-0.115,0.357-0.018c0.018,0.018,2.088,1.873,4.795,1.873
				c2.662,0,4.736-1.5,4.736-3.414c0-2.195-2.111-2.688-4.34-3.203c-2.293-0.529-4.662-1.084-4.662-3.611
				c0-1.792,1.918-3.272,4.285-3.272c2.725,0,4.145,1.596,4.203,1.676c0.102,0.096,0.078,0.256-0.016,0.352
				c-0.119,0.082-0.279,0.082-0.357-0.018c-0.02-0.02-1.342-1.502-3.83-1.502c-2.07,0-3.77,1.247-3.77,2.764
				c0,2.113,2.07,2.611,4.262,3.123c2.328,0.533,4.721,1.08,4.721,3.691c0,2.189-2.293,3.906-5.232,3.906
				C118.563,75.036,116.409,73.124,116.331,73.043z"/>
			<path fill="#5E5E5E" stroke="#5E5E5E" stroke-width="0.8" stroke-miterlimit="10" d="M70.974,84.627
				c1.699,0,3.277,0.594,4.479,1.52c0.12,0.098,0.159,0.256,0.081,0.355c-0.116,0.115-0.277,0.139-0.373,0.041
				c-1.146-0.889-2.589-1.404-4.188-1.404c-3.652,0-6.654,2.902-6.654,6.477c0,3.611,3.002,6.514,6.654,6.514
				c1.58,0,3.02-0.516,4.166-1.4c0.117-0.08,0.278-0.08,0.377,0.035c0.096,0.104,0.057,0.262-0.063,0.357
				c-1.241,0.926-2.78,1.52-4.479,1.52c-3.949-0.02-7.165-3.16-7.165-7.025C63.809,87.786,67.024,84.627,70.974,84.627z"/>
			<path fill="#5E5E5E" stroke="#5E5E5E" stroke-width="0.8" stroke-miterlimit="10" d="M85.374,84.627
				c3.73,0,6.711,3.178,6.752,7.127c-0.041,3.965-3.021,7.143-6.752,7.143s-6.712-3.178-6.731-7.143
				C78.662,87.805,81.644,84.627,85.374,84.627z M85.374,98.366c3.375-0.035,6.18-2.959,6.197-6.611
				c-0.018-3.674-2.822-6.615-6.197-6.615c-3.396,0-6.2,2.941-6.2,6.615C79.174,95.407,81.979,98.331,85.374,98.366z"/>
			<path fill="#5E5E5E" stroke="#5E5E5E" stroke-width="0.8" stroke-miterlimit="10" d="M95.194,85.083
				c0-0.16,0.1-0.256,0.258-0.256c0.119,0,0.236,0.096,0.236,0.256v13.303c0,0.16-0.117,0.256-0.236,0.256
				c-0.158,0-0.258-0.096-0.258-0.256V85.083z"/>
			<path fill="#5E5E5E" stroke="#5E5E5E" stroke-width="0.8" stroke-miterlimit="10" d="M112.14,85.829l-5.035,7.012
				c-0.059,0.057-0.137,0.098-0.217,0.098h-0.039c-0.1,0-0.18-0.041-0.219-0.098l-5.055-7.031v12.576
				c0,0.143-0.098,0.256-0.234,0.256c-0.139,0-0.26-0.113-0.26-0.256V85.1c0-0.121,0.121-0.254,0.26-0.254
				c0.018,0,0.037,0,0.061,0.018c0.059,0,0.119,0.037,0.174,0.078l5.291,7.344l5.293-7.344c0.037-0.041,0.1-0.078,0.154-0.078
				c0.02-0.018,0.043-0.018,0.061-0.018c0.158,0,0.256,0.133,0.256,0.254v13.285c0,0.143-0.098,0.256-0.256,0.256
				c-0.115,0-0.234-0.113-0.234-0.256V85.829z"/>
			<path fill="#5E5E5E" stroke="#5E5E5E" stroke-width="0.8" stroke-miterlimit="10" d="M117.753,85.083
				c0-0.141,0.098-0.256,0.258-0.256h0.037h3.123c1.832,0,3.334,1.498,3.334,3.312c0,1.264-0.689,2.328-1.717,2.902
				c1.775,0.338,3.117,1.896,3.117,3.75c0,2.133-1.697,3.85-3.826,3.85h-4.031h-0.037c-0.16,0-0.258-0.113-0.258-0.256V85.083z
				 M121.171,90.946c1.557,0,2.805-1.246,2.822-2.807c-0.018-1.539-1.266-2.781-2.822-2.822h-2.922v5.629H121.171z M122.079,98.147
				c1.854,0,3.316-1.498,3.316-3.355c0-1.818-1.463-3.316-3.316-3.316h-3.83v6.672H122.079z"/>
			<path fill="#5E5E5E" stroke="#5E5E5E" stroke-width="0.8" stroke-miterlimit="10" d="M136.614,95.659
				c0-0.963-0.434-1.637-0.986-2.127c-0.535-0.475-1.324-1.027-3.496-1.027h-2.428v5.881c0,0.143-0.096,0.256-0.236,0.256
				c-0.139,0-0.256-0.113-0.256-0.256V85.083c0-0.141,0.117-0.256,0.256-0.256h0.018h0.021h4.008c2.113,0,3.848,1.717,3.848,3.846
				c0,1.758-1.164,3.221-2.762,3.672c0.236,0.102,0.475,0.215,0.711,0.355c0.869,0.494,1.795,1.441,1.795,2.959
				c0,1.125,0.156,1.74,0.297,2.02c0.139,0.254,0.256,0.236,0.314,0.236c0.16-0.018,0.299,0.076,0.316,0.197
				c0.041,0.254-0.178,0.314-0.338,0.314c-0.193,0-0.508-0.137-0.709-0.529C136.755,97.499,136.614,96.846,136.614,95.659z
				 M133.515,91.993h0.039c1.814-0.02,3.297-1.461,3.297-3.32c0-1.854-1.502-3.355-3.336-3.355h-3.811v6.676H133.515z"/>
			<path fill="#5E5E5E" stroke="#5E5E5E" stroke-width="0.8" stroke-miterlimit="10" d="M149.589,94.889h-6.908l-1.322,3.537
				c-0.021,0.102-0.115,0.178-0.215,0.178c-0.02,0-0.061-0.021-0.102-0.021c-0.119-0.055-0.178-0.197-0.119-0.338l4.977-13.266
				c0.041-0.115,0.139-0.174,0.258-0.152c0.096,0,0.195,0.057,0.254,0.152l4.975,13.266c0.062,0.141-0.02,0.283-0.137,0.338
				c-0.039,0-0.061,0.021-0.078,0.021c-0.102,0-0.197-0.076-0.258-0.178L149.589,94.889z M142.878,94.381h6.516l-3.26-8.65
				L142.878,94.381z"/>
			<g>
				<g>
					<g>
						<path fill="#787878" d="M86.663,10.105c0.07,0,0.146,0.004,0.219,0.004c0.068,0,0.135-0.004,0.203-0.004H86.663z"/>
						<path fill="#BCBCBC" d="M122.675,116.125c-0.729-0.725-1.818-1.086-2.914-1.086c-1.09,0-1.824,0.543-2.908,1.457
							c-4.732,4.359-10.188,7.273-16.004,9.453c-3.998,1.457-9.635,2.18-17.275,2.18c-13.096,0-23.824-4.359-32.184-13.451
							c-8.734-9.463-13.1-22.193-13.1-37.83c0-15.636,4.545-28.19,13.281-37.643c11.099-11.688,26.312-15.957,46-12.677
							c3.023,0.566,13.729,2.672,15.502,4.387c0.072,0.095,0.15,0.188,0.227,0.295c0.113,0.281,0.203,0.552,0.279,0.812
							c0.115,1.289,0.207,2.17,0.285,2.798v0.001l0,0c0.205,1.656,0.311,1.497,0.441,2.024c0.367,2.186,1.824,3.275,4.004,3.275
							h8.725V29.565V19.378c-16.436-6.134-29.988-9.226-40.152-9.269c-19.904,0.044-36.266,6.402-48.23,18.732
							C26.655,41.204,20.468,57.208,20.468,76.848c0,19.646,5.826,35.641,17.098,48.012c11.273,12.367,26.549,18.551,45.1,18.551
							c20.008,0,35.645-6.551,46.916-19.641L122.675,116.125z"/>
					</g>
				</g>
				<g>
					<g>
						<path fill="#6F6F6F" d="M71.694,10.105c0.072,0,0.148,0.004,0.221,0.004c0.068,0,0.135-0.004,0.203-0.004H71.694z"/>
						<path fill="#6F6F6F" d="M107.706,116.125c-0.729-0.725-1.818-1.086-2.914-1.086c-1.09,0-1.822,0.543-2.908,1.457
							c-4.73,4.359-10.186,7.273-16.004,9.453c-3.998,1.457-9.633,2.18-17.273,2.18c-13.096,0-23.826-4.359-32.184-13.451
							c-8.736-9.463-13.102-22.193-13.102-37.83c0-15.636,4.547-28.19,13.281-37.643c11.1-11.688,26.314-15.957,46.002-12.677
							c3.023,0.566,13.729,2.672,15.502,4.387c0.07,0.095,0.15,0.188,0.225,0.295c0.115,0.281,0.205,0.552,0.281,0.812
							c0.113,1.289,0.205,2.17,0.283,2.798v0.001l0,0c0.207,1.656,0.311,1.497,0.441,2.024c0.367,2.186,1.824,3.275,4.004,3.275
							h8.727V29.565V19.378c-16.436-6.134-29.988-9.226-40.152-9.269c-19.904,0.044-36.268,6.402-48.232,18.732
							C11.688,41.204,5.499,57.208,5.499,76.848c0,19.646,5.828,35.641,17.1,48.012c11.271,12.367,26.547,18.551,45.098,18.551
							c20.008,0,35.645-6.551,46.918-19.641L107.706,116.125z"/>
					</g>
				</g>
				<path fill="#515151" d="M111.69,120.534c0,0-0.781,0.336-4.836,2.803s-11.861,4.117-16.695,4.699
					c-4.832,0.584-13.029-0.283-13.029-0.283l-0.003-0.008c-2.517,0.252-5.335,0.385-8.521,0.385
					c-13.096,0-23.826-4.359-32.184-13.451c-8.736-9.463-13.102-22.193-13.102-37.83c0-15.636,4.547-28.19,13.281-37.643
					c2.229-2.347,4.633-4.38,7.195-6.128c0.017-0.017,0.031-0.038,0.049-0.051c0.426-0.314,0.994-0.678,1.662-1.065
					c4.398-2.694,9.273-4.542,14.629-5.561c0.371-0.077,0.744-0.152,1.115-0.217c0.301-0.053,0.609-0.096,0.917-0.141
					c0.081-0.012,0.161-0.025,0.242-0.037c0.664-0.093,1.341-0.168,2.022-0.229c0.457-0.041,0.916-0.074,1.374-0.104
					c3.362-0.263,6.891-0.237,10.597,0.09c0.209,0.015,0.408,0.029,0.582,0.043c0.711,0.056,1.136,0.099,1.136,0.099
					s3.62-0.535,5.12-0.451s12.5,0.666,21,2.416c6.805,1.401,7.727,2.103,7.824,2.327v-0.631V19.378c0,0-9.863-3.721-19.164-6.123
					c-7.67-1.981-13.734-2.745-14.288-2.745c-3.37,0-10.33,1.742-19.909,6.07c-8.209,3.708-19.996,11.155-25.463,18.206
					c-5.174,6.672-9.876,17.128-11.809,26.134c-1.504,7.01-0.941,20.7,0.142,29.7s5.25,18.584,9.667,25.666
					c4.416,7.084,10.333,13.418,21,19.918c10.299,6.275,22.237,6.836,23.049,6.867c0.125-0.01,0.245-0.027,0.369-0.039
					c1.232-0.055,5.648-0.555,9.764-1.605c2.035-0.492,3.971-1.092,5.926-1.744c2.857-0.955,5.693-2.174,9.008-4.105
					c1.395-0.795,2.811-1.568,4.057-2.58c2.441-1.676,4.77-3.52,6.789-5.594c2.021-2.078,3.41-3.631,3.41-3.633L111.69,120.534z"/>
			</g>
		</g>
		<path fill="#6F6F6F" d="M25.165,49.194c0,0,6.041-11.822,11.201-17.238c6.816-7.153,9.131-8.333,12.062-9.989
			c8.692-4.909-6.14-1.178-6.14-1.178L22.706,35.372v8.5C22.706,43.872,24.036,50.302,25.165,49.194z"/>
	</g>
</g>
</svg>
