<?xml version="1.0" encoding="utf-8"?>
<!-- Generator: Adobe Illustrator 16.0.0, SVG Export Plug-In . SVG Version: 6.00 Build 0)  -->
<!DOCTYPE svg PUBLIC "-//W3C//DTD SVG 1.1//EN" "http://www.w3.org/Graphics/SVG/1.1/DTD/svg11.dtd">
<svg version="1.1" xmlns="http://www.w3.org/2000/svg" xmlns:xlink="http://www.w3.org/1999/xlink" x="0px" y="0px"
	 width="158.601px" height="148px" viewBox="0 0 158.601 148" enable-background="new 0 0 158.601 148" xml:space="preserve">
<g id="Layer_1">
	<g>
		<path fill="#E82325" stroke="#E82325" stroke-width="0.8" stroke-miterlimit="10" d="M69.148,55.051
			c1.811,0,3.492,0.632,4.771,1.62c0.127,0.105,0.17,0.275,0.087,0.379c-0.124,0.125-0.296,0.149-0.398,0.039
			c-1.22-0.942-2.757-1.488-4.46-1.488c-3.889,0-7.085,3.089-7.085,6.891c0,3.852,3.196,6.94,7.085,6.94
			c1.684,0,3.216-0.545,4.438-1.489c0.125-0.087,0.297-0.087,0.402,0.04c0.102,0.103,0.059,0.271-0.068,0.378
			c-1.322,0.989-2.961,1.619-4.771,1.619c-4.205-0.019-7.629-3.363-7.629-7.488C61.52,58.417,64.943,55.051,69.148,55.051z"/>
		<path fill="#E82325" stroke="#E82325" stroke-width="0.8" stroke-miterlimit="10" d="M86.334,65.982h-7.359l-1.41,3.77
			c-0.018,0.102-0.121,0.19-0.227,0.19c-0.021,0-0.064-0.03-0.107-0.03c-0.126-0.059-0.189-0.203-0.126-0.354l5.301-14.129
			c0.041-0.126,0.145-0.189,0.271-0.168c0.104,0,0.21,0.062,0.273,0.168l5.296,14.129c0.066,0.15-0.019,0.295-0.147,0.354
			c-0.038,0-0.062,0.03-0.081,0.03c-0.106,0-0.21-0.089-0.272-0.19L86.334,65.982z M79.186,65.443h6.938l-3.471-9.215L79.186,65.443
			z"/>
		<path fill="#E82325" stroke="#E82325" stroke-width="0.8" stroke-miterlimit="10" d="M90.504,67.962
			c-0.106-0.106-0.127-0.271-0.019-0.38c0.102-0.102,0.272-0.121,0.379-0.019c0.019,0.019,2.228,1.995,5.105,1.995
			c2.84,0,5.049-1.597,5.049-3.635c0-2.338-2.251-2.862-4.624-3.411c-2.442-0.565-4.961-1.154-4.961-3.848
			c0-1.907,2.036-3.483,4.558-3.483c2.903,0,4.418,1.699,4.478,1.785c0.108,0.103,0.088,0.272-0.019,0.375
			c-0.129,0.087-0.297,0.087-0.38-0.019c-0.021-0.022-1.43-1.601-4.079-1.601c-2.205,0-4.015,1.327-4.015,2.942
			c0,2.252,2.209,2.781,4.543,3.326c2.481,0.568,5.023,1.151,5.023,3.933c0,2.33-2.44,4.159-5.573,4.159
			C92.884,70.083,90.587,68.046,90.504,67.962z"/>
		<path fill="#E82325" stroke="#E82325" stroke-width="0.8" stroke-miterlimit="10" d="M113.282,65.982h-7.359l-1.408,3.77
			c-0.022,0.102-0.127,0.19-0.229,0.19c-0.023,0-0.068-0.03-0.108-0.03c-0.125-0.059-0.189-0.203-0.125-0.354l5.3-14.129
			c0.044-0.126,0.144-0.189,0.272-0.168c0.103,0,0.208,0.062,0.271,0.168l5.298,14.129c0.066,0.15-0.019,0.295-0.146,0.354
			c-0.042,0-0.064,0.03-0.083,0.03c-0.108,0-0.215-0.089-0.272-0.19L113.282,65.982z M106.133,65.443h6.939l-3.472-9.215
			L106.133,65.443z"/>
		<path fill="#E82325" stroke="#E82325" stroke-width="0.8" stroke-miterlimit="10" d="M117.452,67.962
			c-0.108-0.106-0.127-0.271-0.021-0.38c0.104-0.102,0.272-0.121,0.381-0.019c0.019,0.019,2.223,1.995,5.105,1.995
			c2.836,0,5.045-1.597,5.045-3.635c0-2.338-2.249-2.862-4.622-3.411c-2.442-0.565-4.965-1.154-4.965-3.848
			c0-1.907,2.042-3.483,4.563-3.483c2.901,0,4.413,1.699,4.476,1.785c0.108,0.103,0.084,0.272-0.017,0.375
			c-0.127,0.087-0.297,0.087-0.38-0.019c-0.021-0.022-1.43-1.601-4.079-1.601c-2.205,0-4.015,1.327-4.015,2.942
			c0,2.252,2.205,2.781,4.539,3.326c2.479,0.568,5.026,1.151,5.026,3.933c0,2.33-2.441,4.159-5.572,4.159
			C119.83,70.083,117.535,68.046,117.452,67.962z"/>
		<path fill="#E82325" stroke="#E82325" stroke-width="0.8" stroke-miterlimit="10" d="M69.148,80.297
			c1.811,0,3.492,0.633,4.771,1.619c0.127,0.104,0.17,0.272,0.087,0.378c-0.124,0.123-0.296,0.147-0.398,0.045
			c-1.22-0.947-2.757-1.497-4.46-1.497c-3.889,0-7.085,3.092-7.085,6.898c0,3.845,3.196,6.937,7.085,6.937
			c1.684,0,3.216-0.549,4.438-1.492c0.125-0.084,0.297-0.084,0.402,0.038c0.102,0.11,0.059,0.278-0.068,0.38
			c-1.322,0.986-2.961,1.619-4.771,1.619c-4.205-0.021-7.629-3.366-7.629-7.481C61.52,83.661,64.943,80.297,69.148,80.297z"/>
		<path fill="#E82325" stroke="#E82325" stroke-width="0.8" stroke-miterlimit="10" d="M84.484,80.297
			c3.973,0,7.147,3.386,7.19,7.59c-0.043,4.223-3.218,7.607-7.19,7.607c-3.972,0-7.146-3.385-7.168-7.607
			C77.338,83.683,80.513,80.297,84.484,80.297z M84.484,94.929c3.595-0.038,6.581-3.151,6.6-7.042
			c-0.019-3.912-3.005-7.045-6.6-7.045c-3.615,0-6.602,3.133-6.602,7.045C77.883,91.777,80.869,94.891,84.484,94.929z"/>
		<path fill="#E82325" stroke="#E82325" stroke-width="0.8" stroke-miterlimit="10" d="M94.942,80.783
			c0-0.171,0.106-0.272,0.274-0.272c0.127,0,0.252,0.102,0.252,0.272v14.165c0,0.171-0.125,0.273-0.252,0.273
			c-0.168,0-0.274-0.103-0.274-0.273V80.783z"/>
		<path fill="#E82325" stroke="#E82325" stroke-width="0.8" stroke-miterlimit="10" d="M112.988,81.576l-5.362,7.469
			c-0.062,0.06-0.146,0.103-0.23,0.103h-0.042c-0.105,0-0.191-0.043-0.232-0.103l-5.383-7.488v13.392
			c0,0.152-0.104,0.273-0.25,0.273c-0.147,0-0.276-0.121-0.276-0.273V80.802c0-0.129,0.129-0.271,0.276-0.271
			c0.019,0,0.04,0,0.064,0.02c0.062,0,0.127,0.04,0.186,0.082l5.635,7.821l5.637-7.821c0.039-0.042,0.105-0.082,0.164-0.082
			c0.021-0.02,0.046-0.02,0.064-0.02c0.168,0,0.272,0.143,0.272,0.271v14.146c0,0.152-0.104,0.273-0.272,0.273
			c-0.123,0-0.25-0.121-0.25-0.273V81.576z"/>
		<path fill="#E82325" stroke="#E82325" stroke-width="0.8" stroke-miterlimit="10" d="M118.967,80.783
			c0-0.151,0.104-0.272,0.274-0.272h0.039h3.326c1.951,0,3.551,1.595,3.551,3.526c0,1.347-0.734,2.48-1.828,3.092
			c1.891,0.359,3.319,2.019,3.319,3.993c0,2.271-1.808,4.1-4.075,4.1h-4.293h-0.039c-0.171,0-0.274-0.121-0.274-0.273V80.783z
			 M122.606,87.026c1.658,0,2.987-1.326,3.006-2.989c-0.019-1.639-1.348-2.962-3.006-3.006h-3.111v5.995H122.606z M123.573,94.696
			c1.975,0,3.532-1.596,3.532-3.574c0-1.937-1.558-3.531-3.532-3.531h-4.078v7.105H123.573z"/>
		<path fill="#E82325" stroke="#E82325" stroke-width="0.8" stroke-miterlimit="10" d="M139.053,92.046
			c0-1.025-0.462-1.744-1.05-2.266c-0.57-0.506-1.411-1.095-3.724-1.095h-2.585v6.263c0,0.152-0.103,0.273-0.252,0.273
			c-0.147,0-0.272-0.121-0.272-0.273V80.783c0-0.151,0.125-0.272,0.272-0.272h0.019h0.022h4.269c2.251,0,4.098,1.828,4.098,4.094
			c0,1.873-1.24,3.431-2.941,3.912c0.252,0.106,0.506,0.229,0.758,0.378c0.925,0.525,1.911,1.535,1.911,3.151
			c0,1.198,0.166,1.853,0.316,2.15c0.147,0.271,0.272,0.252,0.335,0.252c0.17-0.02,0.317,0.081,0.337,0.209
			c0.043,0.271-0.189,0.335-0.36,0.335c-0.206,0-0.541-0.146-0.755-0.563C139.203,94.005,139.053,93.311,139.053,92.046z
			 M135.752,88.141h0.042c1.932-0.02,3.511-1.556,3.511-3.536c0-1.974-1.6-3.573-3.553-3.573h-4.058v7.109H135.752z"/>
		<path fill="#E82325" stroke="#E82325" stroke-width="0.8" stroke-miterlimit="10" d="M152.87,91.226h-7.356l-1.408,3.767
			c-0.023,0.108-0.123,0.189-0.229,0.189c-0.021,0-0.064-0.022-0.107-0.022c-0.127-0.059-0.189-0.211-0.127-0.36l5.3-14.126
			c0.043-0.123,0.147-0.186,0.274-0.162c0.102,0,0.208,0.059,0.271,0.162l5.298,14.126c0.066,0.149-0.021,0.302-0.146,0.36
			c-0.042,0-0.065,0.022-0.084,0.022c-0.107,0-0.21-0.081-0.274-0.189L152.87,91.226z M145.724,90.685h6.938l-3.472-9.211
			L145.724,90.685z"/>
		<path fill="#E82325" d="M125.005,41.188V29.886v-9.656c0,0-17.876-10.534-45.484-10.405c-13.349,0.063-24.233,3.438-32.03,6.955
			c-3.918,1.545-7.713,3.682-11.553,6.533c-1.239,0.89-1.896,1.442-1.896,1.442s0.011-0.005,0.016-0.005
			c-1.698,1.363-3.411,2.868-5.153,4.547C17.104,40.561,11.691,56.113,11.691,74.74c0,16.611,4.435,30.431,12.971,41.544
			l-0.08-0.046c0,0,0.834,1.13,2.386,2.847c0.296,0.344,0.558,0.711,0.862,1.047c2.844,3.116,5.971,5.787,9.332,8.069
			c8.527,6.212,21.265,12.52,37.914,12.52c32.811,0,49.014-17.688,49.014-17.688s-0.05,0.017-0.062,0.022
			c1.316-1.245,2.596-2.545,3.804-3.947l-7.413-9.656c-0.682-0.73-1.707-1.071-2.729-1.071c-1.075,0-1.758,0.539-2.779,1.414
			c-1.414,1.317-2.924,2.438-4.486,3.512l4.437,5.802c-7.852,9.16-18.033,14.879-30.417,17.274
			c-2.431,0.377-4.935,0.574-7.366,0.523c-3.687-0.079-10.277-1.197-15.669-2.867c-7.918-2.904-14.838-7.533-20.607-13.907
			C30.119,108.429,24.61,93.314,24.61,74.74c0-18.627,5.462-34.18,17.212-45.443c2.426-2.336,4.969-4.273,7.564-6.005
			c23.017-12.314,45.907-7.303,45.841-2.851c-0.062,4.167-0.024,5.858-0.024,5.858s0.068-0.005,0.078-0.005
			c0.381,0.102,6.097,1.667,8.171,2.516c0.584,0.245,6.469,2.369,9.153,3.783C116.213,34.488,125.005,41.188,125.005,41.188z"/>
		<path fill="#96CDCD" d="M104.719,108.381c-1.021,0-1.706,0.539-2.729,1.414c-4.486,4.097-9.652,6.878-15.163,8.923
			c-1.703,0.583-3.707,1.074-6.097,1.414c-9.017-1.366-16.624-5.316-22.863-12.094c-8.243-8.922-11.51-18.527-11.51-33.298
			c0-14.823,4.292-26.719,12.532-35.642c6.875-7.268,15.455-11.457,25.741-12.677c-16.282-1.659-29.106,2.582-38.659,12.677
			c-8.243,8.923-12.58,20.818-12.58,35.642c0,14.771,3.312,24.376,11.553,33.298c7.898,8.635,18.041,12.777,30.426,12.777
			c1.755,0,3.361-0.048,4.875-0.146c1.022,0.099,2.145,0.146,3.22,0.146c7.215,0,12.527-0.731,16.329-2.098
			c3.757-1.413,7.315-3.12,10.631-5.411l-2.924-3.854C106.815,108.722,105.794,108.381,104.719,108.381z"/>
	</g>
</g>
<g id="Layer_2">
</g>
</svg>
