<?xml version="1.0" standalone="no"?>
<!DOCTYPE svg PUBLIC "-//W3C//DTD SVG 20010904//EN"
 "http://www.w3.org/TR/2001/REC-SVG-20010904/DTD/svg10.dtd">
<svg version="1.0" xmlns="http://www.w3.org/2000/svg"
 width="640.000000pt" height="640.000000pt" viewBox="0 0 640.000000 640.000000"
 preserveAspectRatio="xMidYMid meet">
<metadata>
Created by potrace 1.11, written by Peter Selinger 2001-2013
</metadata>
<g transform="translate(0.000000,640.000000) scale(0.100000,-0.100000)"
fill="#000000" stroke="none">
<path d="M2635 5810 c-640 -65 -1154 -290 -1564 -685 -446 -430 -711 -1000
-771 -1665 -13 -148 -13 -492 0 -640 58 -642 280 -1165 686 -1617 135 -151
363 -328 555 -433 363 -199 759 -292 1239 -291 322 0 512 21 744 81 405 104
741 295 1023 579 62 62 113 117 113 121 0 5 -39 50 -87 102 -49 51 -112 120
-141 152 -59 66 -110 96 -160 96 -45 0 -73 -16 -167 -95 -166 -140 -410 -277
-611 -344 -264 -88 -764 -106 -1089 -39 -691 142 -1209 707 -1354 1478 -32
175 -45 325 -45 535 0 312 35 551 120 805 105 317 252 551 483 772 281 270
622 424 1036 469 139 15 531 5 670 -16 126 -20 384 -76 495 -109 118 -34 176
-61 193 -88 8 -13 20 -64 26 -115 12 -100 32 -167 59 -196 36 -41 72 -47 277
-47 l195 0 0 418 0 419 -32 11 c-18 6 -121 40 -228 77 -341 116 -653 198 -935
246 -138 23 -574 34 -730 19z"/>
<path d="M2804 3780 c-151 -60 -228 -221 -179 -371 25 -74 110 -159 184 -184
74 -24 182 -17 241 16 95 53 75 95 -24 48 -162 -77 -342 17 -363 189 -22 193
189 329 370 238 42 -22 60 -27 69 -18 18 18 1 40 -54 68 -72 37 -172 43 -244
14z"/>
<path d="M3880 3790 c-104 -20 -159 -90 -140 -177 13 -57 55 -86 168 -117 53
-15 110 -32 125 -38 65 -25 77 -100 24 -153 -63 -63 -183 -65 -280 -5 -56 35
-77 38 -77 10 0 -52 160 -118 254 -105 180 23 254 193 125 287 -13 9 -73 30
-132 46 -124 34 -157 57 -157 109 0 90 150 125 251 58 42 -27 69 -27 69 0 0
22 -76 74 -119 80 -20 4 -45 8 -56 9 -11 2 -36 0 -55 -4z"/>
<path d="M4891 3789 c-86 -16 -141 -74 -141 -149 0 -59 53 -112 133 -134 31
-9 82 -23 113 -32 63 -17 114 -60 114 -94 0 -70 -75 -122 -176 -122 -53 0 -72
5 -133 38 -56 30 -73 36 -83 26 -9 -9 -10 -17 -2 -29 17 -27 107 -72 168 -84
177 -36 334 111 256 239 -23 38 -74 64 -186 92 -131 34 -174 74 -145 136 34
75 187 86 263 17 19 -17 48 -11 48 11 0 8 -13 25 -30 39 -48 41 -127 59 -199
46z"/>
<path d="M3391 3768 c-4 -13 -52 -139 -105 -281 -53 -142 -94 -262 -91 -268 4
-5 14 -9 24 -9 14 0 25 19 46 75 l27 76 127 -3 126 -3 29 -72 c21 -53 33 -73
47 -73 10 0 20 4 24 9 3 5 -41 135 -99 288 -87 234 -107 279 -125 281 -14 2
-24 -4 -30 -20z m82 -215 c26 -71 47 -131 47 -135 0 -5 -47 -8 -104 -8 l-104
0 51 135 c28 74 53 135 56 135 4 0 28 -57 54 -127z"/>
<path d="M4411 3772 c-29 -54 -202 -535 -197 -548 13 -33 39 -8 65 61 l27 70
128 0 128 0 27 -70 c26 -69 54 -95 67 -61 5 13 -168 494 -197 548 -5 10 -16
18 -24 18 -8 0 -19 -8 -24 -18z m72 -207 c25 -66 48 -128 52 -137 7 -17 -2
-18 -100 -18 -82 0 -106 3 -103 13 55 148 101 267 104 265 1 -2 23 -57 47
-123z"/>
<path d="M2823 2836 c-214 -70 -284 -330 -131 -485 74 -74 168 -106 268 -90
63 10 150 56 150 80 0 28 -21 28 -74 1 -129 -67 -284 -21 -349 102 -28 54 -30
155 -4 207 64 129 217 179 350 114 42 -21 60 -26 69 -17 18 18 2 39 -56 67
-67 33 -160 42 -223 21z"/>
<path d="M3395 2830 c-74 -29 -120 -72 -156 -146 -87 -177 1 -380 185 -428
223 -58 412 178 326 407 -53 142 -221 221 -355 167z m193 -62 c112 -52 164
-206 108 -323 -60 -128 -183 -177 -302 -121 -108 50 -159 179 -123 309 19 70
99 142 171 156 53 10 91 5 146 -21z"/>
<path d="M3877 2833 c-4 -3 -7 -133 -7 -289 0 -230 3 -283 14 -287 33 -13 36
15 36 284 0 147 -3 274 -6 283 -6 16 -26 21 -37 9z"/>
<path d="M4106 2824 c-3 -9 -6 -136 -6 -283 0 -269 3 -297 36 -284 11 4 14 49
14 235 0 135 4 228 9 226 5 -1 47 -55 93 -118 46 -63 90 -115 98 -115 8 0 52
52 98 115 46 63 88 117 93 118 5 2 9 -92 9 -228 l0 -231 23 3 22 3 2 275 c2
164 -1 281 -7 290 -16 25 -38 3 -138 -136 -51 -71 -97 -129 -102 -129 -5 0
-48 54 -95 120 -48 66 -94 128 -102 138 -20 21 -39 22 -47 1z"/>
<path d="M4777 2833 c-4 -3 -7 -131 -7 -284 0 -330 -12 -304 141 -297 109 5
149 22 186 77 49 73 38 161 -28 222 l-38 35 19 30 c28 41 26 112 -3 155 -35
52 -78 69 -178 69 -47 0 -89 -3 -92 -7z m192 -57 c56 -29 67 -102 22 -147 -27
-27 -35 -29 -100 -29 l-71 0 0 95 0 95 60 0 c34 0 73 -6 89 -14z m67 -269 c30
-27 37 -41 38 -74 2 -91 -42 -123 -169 -123 l-85 0 0 115 0 115 90 0 c88 0 91
-1 126 -33z"/>
<path d="M5237 2833 c-4 -3 -7 -131 -7 -283 0 -278 3 -306 36 -293 11 4 14 32
14 124 l0 119 70 0 c125 0 167 -32 180 -137 10 -77 36 -111 71 -93 24 13 24
21 -1 43 -14 11 -20 29 -20 56 0 51 -15 89 -47 123 l-26 27 36 40 c41 46 56
109 38 163 -13 40 -64 92 -104 107 -31 12 -229 15 -240 4z m244 -66 c48 -32
67 -89 46 -139 -24 -58 -56 -73 -156 -73 l-86 0 -3 118 -3 117 84 0 c71 0 89
-4 118 -23z"/>
<path d="M5895 2806 c-58 -139 -195 -522 -191 -533 13 -32 41 -6 67 62 l26 70
128 0 127 0 27 -70 c26 -69 54 -95 67 -61 5 13 -168 494 -197 548 -15 28 -39
21 -54 -16z m83 -201 c22 -60 43 -118 47 -127 7 -17 -2 -18 -100 -18 -98 0
-107 1 -100 18 6 15 60 160 87 231 5 14 12 20 17 15 4 -5 26 -58 49 -119z"/>
</g>
</svg>
